<?xml version="1.0" encoding="UTF-8" standalone="no"?>
<!-- Created with Inkscape (http://www.inkscape.org/) -->

<svg
   xmlns:dc="http://purl.org/dc/elements/1.1/"
   xmlns:cc="http://creativecommons.org/ns#"
   xmlns:rdf="http://www.w3.org/1999/02/22-rdf-syntax-ns#"
   xmlns:svg="http://www.w3.org/2000/svg"
   xmlns="http://www.w3.org/2000/svg"
   xmlns:sodipodi="http://sodipodi.sourceforge.net/DTD/sodipodi-0.dtd"
   xmlns:inkscape="http://www.inkscape.org/namespaces/inkscape"
   width="100"
   height="150"
   viewBox="0 0 100 150"
   id="svg2"
   version="1.1"
   inkscape:version="0.91 r13725"
   sodipodi:docname="logo.svg">
  <defs
     id="defs4" />
  <sodipodi:namedview
     id="base"
     pagecolor="#ffffff"
     bordercolor="#666666"
     borderopacity="1.0"
     inkscape:pageopacity="0.0"
     inkscape:pageshadow="2"
     inkscape:zoom="4"
     inkscape:cx="21.324542"
     inkscape:cy="43.791624"
     inkscape:document-units="px"
     inkscape:current-layer="layer1"
     showgrid="false"
     units="px"
     showguides="false"
     inkscape:guide-bbox="true"
     inkscape:window-width="1280"
     inkscape:window-height="751"
     inkscape:window-x="0"
     inkscape:window-y="1"
     inkscape:window-maximized="1">
    <inkscape:grid
       type="xygrid"
       id="grid3336" />
    <sodipodi:guide
       position="50,50"
       orientation="0,1"
       id="guide3338" />
    <sodipodi:guide
       position="50,50"
       orientation="1,0"
       id="guide3340" />
    <sodipodi:guide
       position="0,100"
       orientation="0,1"
       id="guide3342" />
    <sodipodi:guide
       position="100,0"
       orientation="0,1"
       id="guide3344" />
    <sodipodi:guide
       position="0,100"
       orientation="1,0"
       id="guide3346" />
    <sodipodi:guide
       position="100,0"
       orientation="1,0"
       id="guide3348" />
  </sodipodi:namedview>
  <metadata
     id="metadata7">
    <rdf:RDF>
      <cc:Work
         rdf:about="">
        <dc:format>image/svg+xml</dc:format>
        <dc:type
           rdf:resource="http://purl.org/dc/dcmitype/StillImage" />
        <dc:title />
      </cc:Work>
    </rdf:RDF>
  </metadata>
  <g
     inkscape:label="Layer 1"
     inkscape:groupmode="layer"
     id="layer1"
     transform="translate(0,-902.36219)">
    <path
       style="fill:#393939;fill-opacity:1;fill-rule:evenodd;stroke:#e2e0de;stroke-width:0.4800995;stroke-linecap:butt;stroke-linejoin:miter;stroke-miterlimit:4;stroke-dasharray:none;stroke-opacity:1"
       d="M 98.00995,952.3622 A 48.00995,48.00995 0 0 1 50,1000.3721 48.00995,48.00995 0 0 1 1.9900498,952.3622 48.00995,48.00995 0 0 1 50,904.35223 48.00995,48.00995 0 0 1 98.00995,952.3622 Z"
       id="path3350"
       inkscape:connector-curvature="0" />
    <path
       style="fill:#e2e0de;fill-opacity:1;fill-rule:evenodd;stroke:none;stroke-width:1px;stroke-linecap:butt;stroke-linejoin:miter;stroke-opacity:1"
       d="M 97.39268,952.3622 A 47.39268,47.39268 0 0 1 50,999.7548 47.39268,47.39268 0 0 1 2.60732,952.3622 47.39268,47.39268 0 0 1 50,904.9695 47.39268,47.39268 0 0 1 97.39268,952.3622 Z"
       id="circle4183"
       inkscape:connector-curvature="0" />
    <path
       style="fill:#393939;fill-opacity:1;fill-rule:evenodd;stroke:none;stroke-width:1px;stroke-linecap:butt;stroke-linejoin:miter;stroke-opacity:1"
       d="M 96.946876,952.3622 A 46.946876,46.946876 0 0 1 50,999.309 46.946876,46.946876 0 0 1 3.0531241,952.3622 46.946876,46.946876 0 0 1 50,905.4153 46.946876,46.946876 0 0 1 96.946876,952.3622 Z"
       id="circle4185"
       inkscape:connector-curvature="0" />
    <path
       style="fill:#e2e0de;fill-opacity:1;fill-rule:evenodd;stroke:none;stroke-width:1px;stroke-linecap:butt;stroke-linejoin:miter;stroke-opacity:1"
       d="M 94.409208,952.3622 A 44.409208,44.409208 0 0 1 50,996.7714 44.409208,44.409208 0 0 1 5.5907924,952.3622 44.409208,44.409208 0 0 1 50,907.95298 44.409208,44.409208 0 0 1 94.409208,952.3622 Z"
       id="circle4187"
       inkscape:connector-curvature="0" />
    <path
       style="fill:none;fill-rule:evenodd;stroke:#393939;stroke-width:0.4800995;stroke-linecap:square;stroke-linejoin:round;stroke-miterlimit:4;stroke-dasharray:none;stroke-opacity:1"
       d="m 25.995025,976.3672 48.00995,-48.00999 z"
       id="path4154"
       inkscape:connector-curvature="0" />
    <path
       style="fill:none;fill-rule:evenodd;stroke:#393939;stroke-width:0.57611942;stroke-linecap:square;stroke-linejoin:round;stroke-miterlimit:4;stroke-dasharray:none;stroke-opacity:1"
       d="m 25.995025,928.35721 48.00995,48.00999 z"
       id="path4156"
       inkscape:connector-curvature="0" />
    <text
       xml:space="preserve"
       style="font-style:normal;font-variant:normal;font-weight:normal;font-stretch:normal;font-size:40px;line-height:125%;font-family:FontAwesome;-inkscape-font-specification:FontAwesome;letter-spacing:0px;word-spacing:0px;fill:#000000;fill-opacity:1;stroke:none;stroke-width:1px;stroke-linecap:butt;stroke-linejoin:miter;stroke-opacity:1"
       x="-40"
       y="987.36218"
       id="text4150"
       sodipodi:linespacing="125%"><tspan
         sodipodi:role="line"
         id="tspan4152"
         x="-40"
         y="987.36218" /></text>
    <text
       xml:space="preserve"
       style="font-style:normal;font-variant:normal;font-weight:normal;font-stretch:normal;font-size:40px;line-height:125%;font-family:FontAwesome;-inkscape-font-specification:FontAwesome;letter-spacing:0px;word-spacing:0px;fill:#000000;fill-opacity:1;stroke:none;stroke-width:1px;stroke-linecap:butt;stroke-linejoin:miter;stroke-opacity:1"
       x="-45"
       y="997.36218"
       id="text4154"
       sodipodi:linespacing="125%"><tspan
         sodipodi:role="line"
         id="tspan4156"
         x="-45"
         y="997.36218"
         style="font-style:normal;font-variant:normal;font-weight:normal;font-stretch:normal;font-family:FontAwesome;-inkscape-font-specification:FontAwesome" /></text>
    <path
       inkscape:connector-curvature="0"
       id="path3409"
       style="font-style:normal;font-weight:normal;font-size:medium;line-height:125%;font-family:sans-serif;letter-spacing:0px;word-spacing:0px;fill:#393939;fill-opacity:1;stroke:none;stroke-width:1px;stroke-linecap:butt;stroke-linejoin:miter;stroke-opacity:1"
       d="m 47.710954,934.78711 c 0,0.63897 -0.518411,1.15739 -1.157383,1.15739 -0.638971,0 -1.157382,-0.51842 -1.157382,-1.15739 0,-0.63897 0.518411,-1.15738 1.157382,-1.15738 0.638972,0 1.157383,0.51841 1.157383,1.15738 z m 0,-13.88859 c 0,0.63897 -0.518411,1.15738 -1.157383,1.15738 -0.638971,0 -1.157382,-0.51841 -1.157382,-1.15738 0,-0.63897 0.518411,-1.15738 1.157382,-1.15738 0.638972,0 1.157383,0.51841 1.157383,1.15738 z m 7.715885,1.54318 c 0,0.63897 -0.518411,1.15738 -1.157382,1.15738 -0.638972,0 -1.157384,-0.51841 -1.157384,-1.15738 0,-0.63898 0.518412,-1.15739 1.157384,-1.15739 0.638971,0 1.157382,0.51841 1.157382,1.15739 z m 1.157383,0 c 0,-1.27795 -1.036822,-2.31477 -2.314765,-2.31477 -1.277945,0 -2.314766,1.03682 -2.314766,2.31477 0,0.85598 0.470187,1.60345 1.157382,2.0013 -0.02411,2.51972 -1.302055,3.05019 -3.544484,3.7615 -0.590747,0.18084 -1.241776,0.38579 -1.856635,0.68719 l 0,-5.99186 c 0.687196,-0.39785 1.157383,-1.14533 1.157383,-2.00131 0,-1.27794 -1.036823,-2.31477 -2.314766,-2.31477 -1.277943,0 -2.314765,1.03683 -2.314765,2.31477 0,0.85598 0.470186,1.60346 1.157383,2.00131 l 0,9.88598 c -0.687197,0.39785 -1.157383,1.14532 -1.157383,2.0013 0,1.27795 1.036822,2.31477 2.314765,2.31477 1.277943,0 2.314766,-1.03682 2.314766,-2.31477 0,-0.85598 -0.470187,-1.60345 -1.157383,-2.0013 l 0,-0.31346 c 0,-1.16945 0.626916,-1.45879 2.543831,-2.0616 2.049532,-0.65102 5.135886,-1.6155 5.172054,-5.96775 0.687196,-0.39785 1.157383,-1.14532 1.157383,-2.0013 z" />
    <path
       inkscape:connector-curvature="0"
       id="path3406"
       style="font-style:normal;font-weight:normal;font-size:medium;line-height:125%;font-family:sans-serif;letter-spacing:0px;word-spacing:0px;fill:#393939;fill-opacity:1;stroke:none;stroke-width:1px;stroke-linecap:butt;stroke-linejoin:miter;stroke-opacity:1"
       d="m 48.631234,971.6859 c -0.385794,-0.024 -0.409907,0.2532 -0.289346,0.2411 0.132617,0 0.04822,-0.217 0.289346,-0.2411 z m 1.048879,0.1688 c 0.12056,-0.048 0,-0.2894 -0.349627,-0.1326 0.21701,-0.06 0.229066,0.1688 0.349627,0.1326 z m -4.231681,5.1479 c 0.09645,0.036 0.03617,0.1447 -0.02411,0.3496 -0.07233,0.1688 -0.241121,0.3135 -0.301401,0.3014 -0.168785,-0.024 0.04822,-0.1446 0.132617,-0.3014 0.108504,-0.1687 0.08439,-0.3858 0.192897,-0.3496 z m 10.30794,4.3281 c -0.494299,-0.3978 -1.977196,-0.4701 -2.013365,0.4943 -0.265232,0 -0.45813,0.024 -0.614859,0.217 -0.602803,0.7114 -0.04822,2.134 -0.108505,2.9056 -0.04822,0.6751 -0.241121,1.3382 -0.337569,2.0134 -0.361682,-0.013 -0.325514,-0.2653 -0.21701,-0.6391 0.108506,-0.3255 0.265234,-0.7233 0.27729,-1.1091 0.01206,-0.3617 -0.02411,-0.5787 -0.12056,-0.6269 -0.08439,-0.061 -0.21701,0.048 -0.409907,0.3617 -0.409906,0.6631 -1.302055,0.9524 -2.133925,1.0488 -0.819812,0.1085 -1.591401,0.024 -2.001307,-0.434 -0.132617,-0.1567 -0.373738,0.048 -0.397851,0.084 -0.03617,0.061 0.132617,0.1688 0.265234,0.4099 0.192897,0.3376 0.373738,0.8681 -0.08439,1.1093 0.01206,-1.2178 -0.373738,-1.2901 -0.771588,-2.0376 0.771588,-0.084 0.880094,-0.9042 0.506355,-1.2538 -0.289346,-0.3014 -1.953084,-1.5312 -2.375046,-2.0134 -0.204953,-0.217 -0.482243,-0.3255 -0.590747,-0.5787 -0.265234,-0.5787 -0.446075,-1.4105 -0.120561,-2.0012 0.06028,-0.1085 0.108505,-0.061 0.06028,0.1567 -0.265234,1.2658 0.554579,2.3026 0.73542,1.7722 0.132617,-0.3617 0.01206,-1.0127 0.08439,-1.5432 0.12056,-0.9162 0.952429,-2.6885 1.326167,-2.7849 -0.566636,-1.061 0.663084,-1.8808 0.651027,-2.809 -0.01205,-0.6028 0.530468,0.7354 1.072991,1.0247 0.602803,0.3134 1.265887,-0.6028 2.206261,-1.0609 0.265234,-0.1326 0.602803,-0.2773 0.578692,-0.3979 -0.108506,-0.5426 -1.22972,0.6752 -2.24243,0.7113 -0.45813,0.013 -0.626916,-0.096 -0.807757,-0.2652 -0.530466,-0.5184 0.06028,-0.084 0.855981,-0.2291 0.349627,-0.06 0.470188,-0.1205 0.843926,-0.2772 0.385793,-0.1447 0.807756,-0.3739 1.229718,-0.4944 0.301403,-0.072 0.27729,-0.3014 0.156729,-0.3617 -0.06028,-0.037 -0.156729,-0.037 -0.241121,0.096 -0.180841,0.3135 -1.036822,0.4943 -1.302056,0.5788 -0.349625,0.1085 -0.723364,0.205 -1.229719,0.1809 -0.771588,-0.024 -0.590747,-0.3859 -1.145326,-0.6994 -0.15673,-0.085 -0.108505,-0.3255 0.09645,-0.5425 0.120561,-0.1085 0.421962,-0.1808 0.578692,-0.434 0.02411,-0.037 0.217009,-0.2411 0.373738,-0.3496 0.04822,-0.037 0.04822,-0.9765 -0.421962,-0.9886 -0.409907,-0.013 -0.530468,0.3014 -0.518412,0.6149 0.02411,0.3134 0.192898,0.5786 0.301402,0.5786 0.21701,-0.011 0.01206,0.2291 -0.108504,0.2653 -0.180841,0.061 -0.421963,-0.6993 -0.385795,-1.0609 0.02411,-0.3858 0.21701,-1.061 0.699252,-1.0489 0.434019,0.012 0.747477,0.5546 0.735421,1.4949 0,0.1567 0.699251,-0.072 0.940373,0.1809 0.168785,0.1687 -0.578691,-1.6637 1.085046,-1.7964 0.434019,0.085 0.855981,0.2291 1.024766,1.2418 -0.06028,0.096 0.108505,0.7957 -0.156728,0.8801 -0.325515,0.1085 -0.530468,-0.013 -0.337571,-0.3255 0.120561,-0.3135 0,-1.1092 -0.663083,-1.061 -0.67514,0.037 -0.578692,1.2297 -0.397851,1.2539 0.180841,0.024 0.638972,0.3496 0.964486,0.4098 1.048878,0.205 0.277289,0.8078 0.409906,1.5433 0.156729,0.8198 0.699253,0.6028 1.193552,2.7969 0.09645,0.1327 0.506354,0.2532 0.904205,1.9411 0.349625,1.507 -0.144674,2.6161 0.699251,2.5197 0.192897,-0.013 0.482244,-0.072 0.602804,-0.5064 0.313458,-1.1091 -0.168785,-2.4473 -0.651028,-3.3516 -0.277289,-0.5304 -0.542523,-0.88 -0.687196,-1.0006 0.554579,0.3255 1.265888,1.3744 1.434672,2.146 0.21701,1.0248 0.361682,1.4588 0.03617,2.5438 0.192897,0.085 0.663085,0.2893 0.663085,0.5063 z m -7.571212,-9.9703 c 0,0.036 -0.02411,0.036 -0.03617,0.036 -0.108506,0 -0.120561,-0.096 -0.09645,-0.2412 0.02411,-0.1085 -0.03617,-0.1808 -0.08439,-0.1808 -0.07234,0.024 -0.09645,-0.1929 0.04822,-0.1567 0.07234,0.024 0.217009,0.2411 0.168785,0.5425 z m 5.051493,2.3751 c 0.03617,0.1688 -0.07234,0.3617 -0.21701,0.3376 -0.241121,-0.048 -0.807756,-0.6269 -0.554579,-0.9043 0.08439,-0.084 0.132617,0.1568 0.361682,0.3015 0.192897,0.1205 0.361683,0.036 0.409907,0.2652 z m -2.14598,-2.568 c 0,0.036 -0.120561,0.084 -0.120561,0.06 -0.02411,-0.1809 -0.120561,-0.3496 -0.21701,-0.3737 -0.07234,-0.024 -0.12056,-0.096 0.03617,-0.1085 0.06028,-0.013 0.313457,0.1326 0.301402,0.4219 z m 0.651027,-2.8091 c -0.06028,0.1326 -0.337569,0.096 -0.39785,0.1206 -0.229066,0.084 -0.301402,0.3015 -0.409907,0.217 -0.12056,-0.096 0.06028,-0.205 0.108505,-0.3376 0.03617,-0.1206 -0.08439,-0.3737 0.156729,-0.3978 0.09645,0 0.192897,0.085 0.289346,0.1808 0.108504,0.085 0.265233,0.1567 0.253177,0.217 z m 6.81168,16.1672 c -0.33757,-0.217 -1.157383,-0.446 -1.229719,-2.0133 -0.313458,0.2773 -0.27729,1.7361 0.590748,2.0254 0.964485,0.3255 1.567288,0.868 -0.229066,1.4829 -1.181496,0.4099 -1.386448,0.5304 -2.326822,1.3141 -0.952429,0.7957 -2.375045,0.4823 -2.121868,-1.1815 0.132617,-0.8801 0.204953,-1.5914 -0.01206,-2.3509 -0.108504,-0.3617 -0.156729,-0.8439 -0.08439,-1.1694 0.132617,-0.6511 0.482243,-0.844 0.83187,-0.2291 0.217008,0.3979 0.289345,0.856 1.060933,0.8921 1.205608,0.048 1.446729,-1.1695 1.832524,-1.2297 0.253176,-0.036 0.51841,-0.7716 0.325513,-1.9531 -0.217009,-1.2658 -0.964486,-3.2552 -1.916915,-4.2678 -0.795701,-0.844 -1.289999,-1.5794 -1.603457,-2.6283 -0.265234,-0.8921 -0.409907,-1.7481 -0.361682,-2.58 0.07233,-1.0609 -0.518412,-2.5438 -1.458785,-3.2431 -0.590747,-0.434 -1.519065,-0.6751 -2.350933,-0.663 -0.470188,0 -0.916262,0.072 -1.253832,0.2531 -1.398504,0.7596 -1.591401,1.8447 -1.567289,3.0864 0.02411,1.1574 0.06028,2.4835 0.192897,3.7374 -0.156729,0.5787 -0.976542,1.6758 -1.494952,2.3509 -0.699253,0.6872 -1.048879,2.0255 -1.50701,3.1949 -0.241121,0.6148 -0.638971,0.9042 -0.67514,1.6999 -0.01205,0.229 0,0.8077 0.204954,0.6389 0.819813,-0.6269 1.844579,0.9646 3.399812,3.3999 0.289345,0.4701 1.338224,2.4353 -0.494299,2.6885 -0.61486,0.084 -1.603457,-0.3496 -2.555887,-0.5907 -0.855981,-0.205 -1.736074,-0.3376 -2.218317,-0.4703 -0.301402,-0.084 -0.421963,-0.1929 -0.446074,-0.3135 -0.07234,-0.3255 0.361682,-0.7836 0.373738,-1.1694 0.02411,-0.3858 -0.132617,-0.5907 -0.265234,-0.9042 -0.132617,-0.3134 -0.168785,-0.5545 -0.06028,-0.6871 0.07233,-0.1085 0.241121,-0.1447 0.51841,-0.1206 0.349627,0.036 0.771589,-0.037 1.000654,-0.1808 0.373739,-0.2291 0.55458,-0.6993 0.385795,-1.278 0,0.5667 -0.192897,0.7716 -0.651028,1.0368 -0.434018,0.2412 -1.097103,0.036 -1.410561,0.3135 -0.361682,0.3135 0.132617,1.1453 0.09645,1.7601 -0.03617,0.4582 -0.518411,0.9886 -0.301401,1.4588 0.217009,0.4703 1.241775,0.5306 2.302709,0.7476 1.519065,0.3134 2.399158,0.868 3.09841,0.8921 1.024766,0.036 1.181495,-0.9886 2.772896,-1.0248 0.470187,-0.012 0.928318,-0.036 1.386448,-0.048 0.518412,0 1.036822,0 1.56729,0.012 1.060933,0.036 0.699251,0.5907 1.386447,0.9404 0.590748,0.3014 1.639626,0.1809 1.892803,-0.061 0.337571,-0.3256 1.253832,-1.0972 1.941027,-1.4468 0.880094,-0.4461 2.91757,-1.2056 1.434673,-2.1219 z" />
    <text
       xml:space="preserve"
       style="font-style:normal;font-weight:normal;font-size:22.5px;line-height:125%;font-family:sans-serif;letter-spacing:0px;word-spacing:0px;fill:#000000;fill-opacity:1;stroke:none;stroke-width:1px;stroke-linecap:butt;stroke-linejoin:miter;stroke-opacity:1"
       x="-10"
       y="977.36218"
       id="text4166"
       sodipodi:linespacing="125%"><tspan
         sodipodi:role="line"
         id="tspan4168"
         x="-10"
         y="977.36218" /></text>
    <path
       inkscape:connector-curvature="0"
       id="path3403"
       style="font-style:normal;font-variant:normal;font-weight:normal;font-stretch:normal;font-size:medium;line-height:125%;font-family:Kameron;-inkscape-font-specification:Kameron;letter-spacing:0px;word-spacing:0px;fill:#393939;fill-opacity:1;stroke:none;stroke-width:1px;stroke-linecap:butt;stroke-linejoin:miter;stroke-opacity:1"
       d="m 20.457939,945.71534 q 0,0 0.126589,0 0.126589,0 0.327022,0 0.200432,0 0.432511,0 0.242629,0 0.464158,0.0106 0.221531,0 0.400865,0 0.179334,0 0.253178,0 0.21098,0 0.474708,0 0.263726,0 0.538001,0 0.284825,-0.0106 0.559101,-0.0106 0.274275,0 0.495805,0 l 7.025676,11.63556 0.02109,0 0,-9.83168 q 0,-0.27427 -0.0633,-0.42195 -0.0633,-0.15825 -0.210981,-0.23208 -0.147687,-0.0738 -0.411413,-0.0844 -0.253178,-0.0211 -0.643493,-0.0211 l -0.548551,0 0,-1.04436 q 0.833376,0 1.403025,0.0211 0.569649,0.0106 1.033808,0.0106 0.05274,0 0.200432,0 0.147686,0 0.33757,0 0.200432,0 0.432512,0 0.242628,-0.0106 0.474708,-0.0106 0.548551,-0.0106 1.213141,-0.0211 l 0,1.04436 -0.66459,0 q -0.411414,0 -0.643493,0.0527 -0.22153,0.0422 -0.327022,0.13714 -0.10549,0.095 -0.126588,0.23208 -0.0211,0.13714 -0.0211,0.31647 0,0 0,0.23208 0,0.22153 -0.01055,0.64349 0,0.41142 0,0.99162 0,0.5802 0,1.26585 l 0,5.72808 q 0,1.5507 0.01055,3.0698 l -2.046518,0 -7.257755,-11.96257 -0.0211,0 0,10.01107 q 0,0.2953 0.05274,0.4641 0.0633,0.1583 0.210982,0.2321 0.147687,0.074 0.400865,0.095 0.263726,0.01 0.67514,0.01 l 0.569648,0 0,1.0444 q -0.284824,0 -0.548551,0 -0.263726,-0.01 -0.548551,-0.01 -0.274275,0 -0.590747,0 -0.316472,-0.011 -0.717337,-0.011 -0.432511,0 -0.801728,0.011 -0.358668,0 -0.696238,0 -0.327021,0 -0.654042,0.01 -0.316471,0 -0.643493,0 l 0,-1.0444 0.67514,0 q 0.443061,0 0.68569,-0.042 0.242627,-0.042 0.348119,-0.1477 0.116039,-0.1055 0.126589,-0.2638 0.02109,-0.1688 0.02109,-0.4113 l 0,-9.78954 q 0,-0.31647 -0.0422,-0.48525 -0.0422,-0.17933 -0.168784,-0.26372 -0.11604,-0.0844 -0.34812,-0.095 -0.22153,-0.0211 -0.590748,-0.0211 l -0.654041,0 q 0,-0.095 0,-0.23208 0,-0.13715 0,-0.28483 0.01055,-0.14768 0.01055,-0.28483 0,-0.14768 0,-0.24262 z" />
    <path
       inkscape:connector-curvature="0"
       id="path3400"
       style="font-style:normal;font-variant:normal;font-weight:normal;font-stretch:normal;font-size:medium;line-height:125%;font-family:Kameron;-inkscape-font-specification:Kameron;letter-spacing:0px;word-spacing:0px;fill:#393939;fill-opacity:1;stroke:none;stroke-width:1px;stroke-linecap:butt;stroke-linejoin:miter;stroke-opacity:1"
       d="m 75.527087,955.642 q 0.158236,0.6963 0.295374,1.2026 0.137138,0.5063 0.295373,0.8334 0.158236,0.3164 0.358669,0.4747 0.200432,0.1582 0.495806,0.1582 0.158236,0 0.316472,-0.032 0.158236,-0.042 0.284825,-0.1476 0.126588,-0.116 0.200432,-0.3165 0.08439,-0.2004 0.08439,-0.5169 l 1.065455,-0.095 q 0,1.0972 -0.601296,1.7407 -0.601297,0.633 -1.698399,0.633 -0.770082,0 -1.265887,-0.3165 -0.495807,-0.3165 -0.833376,-0.8862 -0.337571,-0.5696 -0.590747,-1.3608 -0.242629,-0.7912 -0.506356,-1.7512 -0.189883,-0.6857 -0.506355,-1.2237 -0.316472,-0.538 -0.611845,-0.9705 -0.316472,-0.116 -0.738435,-0.1688 -0.421962,-0.053 -0.959964,-0.053 l -1.392476,0 0,4.8842 q 0,0.211 0.0633,0.327 0.0633,0.1055 0.210981,0.1583 0.158236,0.042 0.411414,0.053 0.263726,0.01 0.643492,0.01 l 0.548551,0 0,1.0444 q -0.316472,0 -0.622394,0 -0.305923,0 -0.632944,0 -0.316472,0 -0.685689,0 -0.358667,-0.01 -0.791179,-0.021 -0.464159,0 -0.865024,0.011 -0.400863,0 -0.759531,0 -0.358668,0 -0.696239,0.01 -0.337569,0 -0.67514,0 l 0,-1.0444 0.527453,0 q 0.527454,0 0.812278,-0.042 0.284825,-0.042 0.411414,-0.1266 0.137137,-0.085 0.158235,-0.211 0.0211,-0.1266 0.0211,-0.2954 l 0,-10.16926 q 0,-0.24262 -0.04219,-0.37977 -0.0422,-0.13713 -0.232079,-0.20043 -0.189883,-0.0633 -0.580198,-0.0738 -0.379766,-0.0211 -1.076005,-0.0211 l 0,-1.04436 5.812533,0 q 1.149848,0 2.141459,0.14768 1.002162,0.13714 1.730046,0.52745 0.727886,0.37977 1.139299,1.06546 0.421963,0.68569 0.421963,1.76169 0,1.2659 -0.78063,2.1098 -0.770082,0.84404 -2.204755,1.14994 0.316472,0.2426 0.590747,0.5169 0.274276,0.2637 0.516904,0.633 0.242629,0.3586 0.432512,0.8545 0.200432,0.4851 0.358668,1.1604 z m -6.308338,-3.8188 2.299695,0 q 0.854474,0 1.455771,-0.1371 0.611845,-0.1371 0.991612,-0.4325 0.379765,-0.2954 0.5591,-0.7701 0.179333,-0.4747 0.179333,-1.14984 0,-0.77007 -0.253176,-1.25533 -0.253178,-0.48526 -0.748984,-0.74898 -0.485257,-0.27429 -1.202593,-0.36922 -0.717336,-0.1055 -1.645653,-0.1055 l -1.635105,0 0,4.96857 z" />
    <path
       style="fill:#393939;fill-opacity:1;fill-rule:evenodd;stroke:#e2e0de;stroke-width:1px;stroke-linecap:round;stroke-linejoin:round;stroke-opacity:1"
       d="m 95,1051.3622 -60,0 0,-20 60,0 -10,10 z"
       id="path4162"
       inkscape:connector-curvature="0" />
    <path
       style="fill:#e2e0de;fill-opacity:1;fill-rule:evenodd;stroke:#e2e0de;stroke-width:1px;stroke-linecap:round;stroke-linejoin:round;stroke-opacity:1"
       d="m 75,1026.3622 -10,5 -30,0 10,-5 z"
       id="path4172"
       inkscape:connector-curvature="0" />
    <path
       style="fill:#393939;fill-opacity:1;fill-rule:evenodd;stroke:#e2e0de;stroke-width:1px;stroke-linecap:round;stroke-linejoin:round;stroke-opacity:1"
       d="m 75,1026.3622 0,-20 -66,0 10,10 -10,10 z"
       id="path4174"
       inkscape:connector-curvature="0"
       sodipodi:nodetypes="cccccc" />
    <path
       inkscape:connector-curvature="0"
       id="path3383"
       style="font-style:normal;font-variant:normal;font-weight:normal;font-stretch:normal;font-size:medium;line-height:125%;font-family:'Sansita One';-inkscape-font-specification:'Sansita One';letter-spacing:0px;word-spacing:0px;fill:#e2e0de;fill-opacity:1;stroke:none;stroke-width:1px;stroke-linecap:butt;stroke-linejoin:miter;stroke-opacity:1"
       d="m 20.902433,1020.4174 1.5,-8.25 2.6875,0 1.95,5.675 1.0375,-5.675 1.3875,0.012 -1.525,8.2375 -2.8625,0 -1.8,-5.4625 -1,5.4625 -1.375,0 z" />
    <path
       inkscape:connector-curvature="0"
       id="path3385"
       style="font-style:normal;font-variant:normal;font-weight:normal;font-stretch:normal;font-size:medium;line-height:125%;font-family:'Sansita One';-inkscape-font-specification:'Sansita One';letter-spacing:0px;word-spacing:0px;fill:#e2e0de;fill-opacity:1;stroke:none;stroke-width:1px;stroke-linecap:butt;stroke-linejoin:miter;stroke-opacity:1"
       d="m 32.778996,1019.7299 q -0.3875,0.9375 -1.625,0.9375 -0.6375,0 -1.0375,-0.4375 -0.3375,-0.3875 -0.3375,-0.775 0,-1.0125 0.4625,-2.9875 l 0.4625,-2.425 2.5375,-0.25 -0.7625,3.95 q -0.2125,0.925 -0.2125,1.25 0,0.7125 0.5125,0.7375 z m -1.85,-7.425 q 0,-0.4875 0.4,-0.75 0.4125,-0.2625 1,-0.2625 0.5875,0 0.9375,0.2625 0.3625,0.2625 0.3625,0.75 0,0.4875 -0.4,0.7375 -0.3875,0.25 -0.975,0.25 -0.5875,0 -0.9625,-0.25 -0.3625,-0.25 -0.3625,-0.7375 z" />
    <path
       inkscape:connector-curvature="0"
       id="path3387"
       style="font-style:normal;font-variant:normal;font-weight:normal;font-stretch:normal;font-size:medium;line-height:125%;font-family:'Sansita One';-inkscape-font-specification:'Sansita One';letter-spacing:0px;word-spacing:0px;fill:#e2e0de;fill-opacity:1;stroke:none;stroke-width:1px;stroke-linecap:butt;stroke-linejoin:miter;stroke-opacity:1"
       d="m 39.993644,1015.2174 q 0,0.525 -0.4375,0.85 -0.4375,0.325 -1.15,0.325 -0.3,0 -0.475,-0.087 0.1375,-0.325 0.175,-0.725 0.05,-0.4125 0.05,-0.525 0,-0.525 -0.3625,-0.525 -0.25,0 -0.5375,0.3125 -0.275,0.3125 -0.5125,0.8 -0.525,1.125 -0.525,2.2625 0,0.625 0.2375,0.9125 0.2375,0.275 0.7625,0.275 0.725,0 1.3,-0.6 0.1625,-0.1875 0.25,-0.4 0.475,0.25 0.475,0.9375 0,0.7 -0.775,1.1625 -0.8,0.475 -2.075,0.475 -2.5375,0 -2.5375,-2.6875 0,-1.9625 1.1125,-3.0875 1.075,-1.1 3.05,-1.1 1.975,0 1.975,1.425 z" />
    <path
       inkscape:connector-curvature="0"
       id="path3389"
       style="font-style:normal;font-variant:normal;font-weight:normal;font-stretch:normal;font-size:medium;line-height:125%;font-family:'Sansita One';-inkscape-font-specification:'Sansita One';letter-spacing:0px;word-spacing:0px;fill:#e2e0de;fill-opacity:1;stroke:none;stroke-width:1px;stroke-linecap:butt;stroke-linejoin:miter;stroke-opacity:1"
       d="m 46.613371,1019.0299 q 0,0.55 0.5625,0.7125 -0.1375,0.4625 -0.675,0.7125 -0.45,0.2125 -0.95,0.2125 -0.4875,0 -0.75,-0.1375 -0.25,-0.125 -0.3875,-0.3375 -0.225,-0.325 -0.225,-0.9375 0,-0.3625 0.2,-1.3625 l 0.175,-0.95 q 0.2125,-1.0875 0.2125,-1.4875 0,-0.7 -0.3875,-0.7 -0.4875,0 -0.8,0.7125 -0.125,0.275 -0.2125,0.6875 l -0.85,4.2625 -2.5125,0.25 1.7625,-9 2.5125,-0.25 -0.1,0.5 q -0.35,1.925 -0.65,2.575 0.7,-0.7 1.9875,-0.7 1.3625,0 1.6125,0.9 0.0875,0.2875 0.0875,0.5375 0,0.25 -0.025,0.45 -0.0125,0.1875 -0.075,0.5375 l -0.1625,0.9 -0.2875,1.4125 q -0.0625,0.2875 -0.0625,0.5 z" />
    <path
       inkscape:connector-curvature="0"
       id="path3391"
       style="font-style:normal;font-variant:normal;font-weight:normal;font-stretch:normal;font-size:medium;line-height:125%;font-family:'Sansita One';-inkscape-font-specification:'Sansita One';letter-spacing:0px;word-spacing:0px;fill:#e2e0de;fill-opacity:1;stroke:none;stroke-width:1px;stroke-linecap:butt;stroke-linejoin:miter;stroke-opacity:1"
       d="m 50.912199,1020.6674 q -2.75,0 -2.75,-2.5875 0,-1.8375 1.0125,-3.025 1.075,-1.2625 2.9375,-1.2625 1.35,0 2.0375,0.625 0.6875,0.625 0.6875,1.9375 0,2 -1.075,3.1625 -1.05,1.15 -2.85,1.15 z m 0.325,-5.4375 q -0.15,0.3375 -0.275,0.85 -0.1125,0.5 -0.2625,1.3 -0.15,0.8 -0.15,1.7875 0,0.325 0.1,0.5375 0.1125,0.2125 0.4,0.2125 0.2875,0 0.4625,-0.1375 0.1875,-0.1375 0.325,-0.4625 0.25,-0.575 0.45,-1.6375 0.2,-1.075 0.2125,-1.5375 0.025,-0.4625 0.025,-0.8 0,-0.35 -0.1,-0.575 -0.1,-0.225 -0.3875,-0.225 -0.275,0 -0.4625,0.175 -0.1875,0.175 -0.3375,0.5125 z" />
    <path
       inkscape:connector-curvature="0"
       id="path3393"
       style="font-style:normal;font-variant:normal;font-weight:normal;font-stretch:normal;font-size:medium;line-height:125%;font-family:'Sansita One';-inkscape-font-specification:'Sansita One';letter-spacing:0px;word-spacing:0px;fill:#e2e0de;fill-opacity:1;stroke:none;stroke-width:1px;stroke-linecap:butt;stroke-linejoin:miter;stroke-opacity:1"
       d="m 58.596574,1019.7299 q -0.3875,0.9375 -1.625,0.9375 -0.625,0 -1.025,-0.4375 -0.325,-0.3625 -0.325,-0.775 0,-0.9375 0.4375,-2.9875 l 0.9125,-4.8 2.5375,-0.25 -1.2125,6.325 q -0.2125,0.925 -0.2125,1.25 0,0.7125 0.5125,0.7375 z" />
    <path
       inkscape:connector-curvature="0"
       id="path3395"
       style="font-style:normal;font-variant:normal;font-weight:normal;font-stretch:normal;font-size:medium;line-height:125%;font-family:'Sansita One';-inkscape-font-specification:'Sansita One';letter-spacing:0px;word-spacing:0px;fill:#e2e0de;fill-opacity:1;stroke:none;stroke-width:1px;stroke-linecap:butt;stroke-linejoin:miter;stroke-opacity:1"
       d="m 60.199308,1020.0424 q -0.2875,-0.325 -0.425,-0.8375 -0.125,-0.5125 -0.125,-1.35 0,-0.8375 0.2875,-1.6 0.2875,-0.7625 0.8125,-1.3125 1.075,-1.15 2.85,-1.15 0.6375,0 1.1,0.2125 l 2.1375,-0.2125 -0.925,4.875 q -0.0375,0.15 -0.0375,0.425 0,0.275 0.1625,0.45 0.175,0.175 0.425,0.2 -0.125,0.425 -0.5875,0.675 -0.45,0.25 -0.9625,0.25 -0.5125,0 -0.8625,-0.2 -0.3375,-0.1875 -0.4375,-0.5125 -0.2,0.3125 -0.625,0.5125 -0.425,0.2 -1,0.2 -0.5625,0 -1.025,-0.15 -0.4625,-0.15 -0.7625,-0.475 z m 2.6375,-5.075 q -0.1375,0.225 -0.2625,0.6125 -0.125,0.375 -0.3375,1.4 -0.2,1.0125 -0.2,1.7375 0,0.725 0.1125,0.9375 0.1125,0.2125 0.3125,0.2125 0.4,0 0.6875,-0.375 0.3,-0.3875 0.4125,-1.0625 l 0.6625,-3.6625 q -0.2625,-0.225 -0.575,-0.225 -0.3,0 -0.4875,0.1 -0.175,0.1 -0.325,0.325 z" />
    <path
       inkscape:connector-curvature="0"
       id="path3397"
       style="font-style:normal;font-variant:normal;font-weight:normal;font-stretch:normal;font-size:medium;line-height:125%;font-family:'Sansita One';-inkscape-font-specification:'Sansita One';letter-spacing:0px;word-spacing:0px;fill:#e2e0de;fill-opacity:1;stroke:none;stroke-width:1px;stroke-linecap:butt;stroke-linejoin:miter;stroke-opacity:1"
       d="m 71.236222,1016.0299 q 0.175,-0.4625 0.175,-0.8625 0,-0.7375 -0.6,-0.7375 -0.3125,0 -0.575,0.2875 -0.25,0.275 -0.25,0.625 0,0.25 0.2,0.45 0.2875,0.275 1.025,0.725 0.7375,0.45 1.0125,0.825 0.2875,0.3625 0.2875,0.875 0,0.5 -0.25,0.9625 -0.2375,0.4625 -0.675,0.7875 -0.9375,0.7 -2.4375,0.7 -0.8125,0 -1.4375,-0.425 -0.625,-0.4125 -0.625,-0.9 0,-0.4875 0.35,-0.775 0.3625,-0.2875 0.8875,-0.2875 0.525,0 0.85,0.2 -0.1625,0.4125 -0.1625,0.6875 0,0.825 0.7,0.825 0.3,0 0.5,-0.1875 0.2,-0.1875 0.2,-0.5125 0,-0.6375 -1.075,-1.3125 -0.875,-0.575 -1.075,-0.8 -0.3375,-0.4 -0.3375,-0.9 0,-0.5 0.2375,-0.975 0.2375,-0.475 0.675,-0.8125 0.9125,-0.7 2.5,-0.7 0.8125,0 1.2875,0.325 0.4875,0.325 0.4875,0.875 0,0.55 -0.3375,0.8625 -0.325,0.3125 -0.925,0.3125 -0.4125,0 -0.6125,-0.1375 z" />
    <path
       inkscape:connector-curvature="0"
       id="path3368"
       style="font-style:normal;font-variant:normal;font-weight:normal;font-stretch:normal;font-size:12.5px;line-height:125%;font-family:'Sansita One';-inkscape-font-specification:'Sansita One';letter-spacing:0px;word-spacing:0px;fill:#e2e0de;fill-opacity:1;stroke:none;stroke-width:1px;stroke-linecap:butt;stroke-linejoin:miter;stroke-opacity:1"
       d="m 36.701555,1045.0061 1.525,-8.2125 q 1.2375,-0.1375 3.0375,-0.1375 1.8125,0 2.65,0.525 0.8375,0.525 0.8375,1.5875 0,1.05 -0.55,1.7125 -0.5375,0.6625 -1.475,0.875 0.2125,1.0375 0.7,1.875 0.45,0.7875 0.975,1.0375 -0.1875,0.525 -0.575,0.75 -0.375,0.2375 -0.925,0.2375 -0.5375,0 -0.9625,-0.3125 -0.425,-0.325 -0.7625,-0.9125 -0.7125,-1.275 -0.7875,-3.2875 l 0.0875,0 q 0.925,-0.025 1.3875,-0.5 0.4625,-0.4875 0.4625,-1.5 0,-1.2625 -1.0625,-1.3125 l -0.275,0 q -0.1125,0 -0.175,0.012 l -1.4375,7.5625 -2.675,0 z" />
    <path
       inkscape:connector-curvature="0"
       id="path3370"
       style="font-style:normal;font-variant:normal;font-weight:normal;font-stretch:normal;font-size:12.5px;line-height:125%;font-family:'Sansita One';-inkscape-font-specification:'Sansita One';letter-spacing:0px;word-spacing:0px;fill:#e2e0de;fill-opacity:1;stroke:none;stroke-width:1px;stroke-linecap:butt;stroke-linejoin:miter;stroke-opacity:1"
       d="m 48.059563,1045.2561 q -2.75,0 -2.75,-2.5875 0,-1.8375 1.0125,-3.025 1.075,-1.2625 2.9375,-1.2625 1.35,0 2.0375,0.625 0.6875,0.625 0.6875,1.9375 0,2 -1.075,3.1625 -1.05,1.15 -2.85,1.15 z m 0.325,-5.4375 q -0.15,0.3375 -0.275,0.85 -0.1125,0.5 -0.2625,1.3 -0.15,0.8 -0.15,1.7875 0,0.325 0.1,0.5375 0.1125,0.2125 0.4,0.2125 0.2875,0 0.4625,-0.1375 0.1875,-0.1375 0.325,-0.4625 0.25,-0.575 0.45,-1.6375 0.2,-1.075 0.2125,-1.5375 0.025,-0.4625 0.025,-0.8 0,-0.35 -0.1,-0.575 -0.1,-0.225 -0.3875,-0.225 -0.275,0 -0.4625,0.175 -0.1875,0.175 -0.3375,0.5125 z" />
    <path
       inkscape:connector-curvature="0"
       id="path3372"
       style="font-style:normal;font-variant:normal;font-weight:normal;font-stretch:normal;font-size:12.5px;line-height:125%;font-family:'Sansita One';-inkscape-font-specification:'Sansita One';letter-spacing:0px;word-spacing:0px;fill:#e2e0de;fill-opacity:1;stroke:none;stroke-width:1px;stroke-linecap:butt;stroke-linejoin:miter;stroke-opacity:1"
       d="m 52.593938,1044.4061 1.55,-8.15 2.5375,-0.25 -0.3875,1.9125 q -0.1375,0.5875 -0.3125,1 0.275,-0.35 0.875,-0.4875 0.175,-0.05 0.3875,-0.05 1.1625,0 1.8,0.7125 0.6375,0.7 0.6375,2.0625 0,1.775 -1.0125,2.8875 -1.0875,1.2125 -3.0625,1.2125 -1.3625,0 -2.3875,-0.45 -0.3625,-0.1625 -0.625,-0.4 z m 2.5125,-0.1125 q 0.2625,0.225 0.5875,0.225 0.325,0 0.5125,-0.125 0.1875,-0.125 0.325,-0.375 0.375,-0.675 0.675,-2.7375 0.0875,-0.5875 0.0875,-1.175 0,-0.5875 -0.1375,-0.775 -0.125,-0.1875 -0.375,-0.1875 -0.7625,0 -1.0125,1.4875 l -0.6625,3.6625 z" />
    <path
       inkscape:connector-curvature="0"
       id="path3374"
       style="font-style:normal;font-variant:normal;font-weight:normal;font-stretch:normal;font-size:12.5px;line-height:125%;font-family:'Sansita One';-inkscape-font-specification:'Sansita One';letter-spacing:0px;word-spacing:0px;fill:#e2e0de;fill-opacity:1;stroke:none;stroke-width:1px;stroke-linecap:butt;stroke-linejoin:miter;stroke-opacity:1"
       d="m 65.509367,1042.8936 q 0.3125,0.2125 0.3125,0.6875 0,0.4625 -0.2375,0.7625 -0.2375,0.3 -0.625,0.5 -0.8,0.4125 -1.6625,0.4125 -0.8625,0 -1.375,-0.1875 -0.5,-0.1875 -0.8375,-0.5375 -0.6625,-0.6625 -0.6625,-1.875 0,-1.8875 1.025,-3.0375 1.1,-1.2375 3.0125,-1.2375 1.1875,0 1.775,0.5 0.4375,0.375 0.4375,0.9875 0,2.2 -3.8,2.2 -0.05,0.325 -0.05,0.6 0,0.575 0.25,0.8 0.2625,0.2125 0.7375,0.2125 0.475,0 0.975,-0.2125 0.5125,-0.225 0.725,-0.575 z m -2.55,-1.3625 q 0.8875,0 1.4,-0.55 0.5125,-0.525 0.5125,-1.3625 0,-0.2875 -0.1125,-0.4375 -0.1,-0.1625 -0.3125,-0.1625 -0.2125,0 -0.4,0.087 -0.175,0.075 -0.3625,0.35 -0.4625,0.625 -0.725,2.075 z" />
    <path
       inkscape:connector-curvature="0"
       id="path3376"
       style="font-style:normal;font-variant:normal;font-weight:normal;font-stretch:normal;font-size:12.5px;line-height:125%;font-family:'Sansita One';-inkscape-font-specification:'Sansita One';letter-spacing:0px;word-spacing:0px;fill:#e2e0de;fill-opacity:1;stroke:none;stroke-width:1px;stroke-linecap:butt;stroke-linejoin:miter;stroke-opacity:1"
       d="m 71.024406,1041.4936 q 0.45,-0.8 0.45,-1.6125 0,-0.5375 -0.3875,-0.5375 -0.3,0 -0.6125,0.5125 -0.325,0.5125 -0.425,1.175 l -0.65,3.975 -2.5875,0.25 1.275,-6.625 2.0625,-0.25 -0.225,1.2625 q 0.6125,-1.2625 1.9875,-1.2625 0.725,0 1.1125,0.375 0.4,0.375 0.4,1.15 0,0.7625 -0.5125,1.25 -0.5,0.4875 -1.3625,0.4875 -0.375,0 -0.525,-0.15 z" />
    <path
       inkscape:connector-curvature="0"
       id="path3378"
       style="font-style:normal;font-variant:normal;font-weight:normal;font-stretch:normal;font-size:12.5px;line-height:125%;font-family:'Sansita One';-inkscape-font-specification:'Sansita One';letter-spacing:0px;word-spacing:0px;fill:#e2e0de;fill-opacity:1;stroke:none;stroke-width:1px;stroke-linecap:butt;stroke-linejoin:miter;stroke-opacity:1"
       d="m 73.830461,1043.7561 q 0,-0.3375 0.175,-1.1875 l 0.6625,-3.375 -0.7375,0 0.05,-0.375 q 1.5,-0.45 2.95,-1.55 l 0.6,0 -0.3,1.3625 0.975,0 -0.1125,0.5625 -0.9625,0 -0.6375,3.375 q -0.1625,0.775 -0.1625,1.0375 0,0.6 0.525,0.725 -0.125,0.425 -0.575,0.675 -0.45,0.25 -1.0875,0.25 -0.6375,0 -1,-0.4 -0.3625,-0.4 -0.3625,-1.1 z" />
    <path
       inkscape:connector-curvature="0"
       id="path3380"
       style="font-style:normal;font-variant:normal;font-weight:normal;font-stretch:normal;font-size:12.5px;line-height:125%;font-family:'Sansita One';-inkscape-font-specification:'Sansita One';letter-spacing:0px;word-spacing:0px;fill:#e2e0de;fill-opacity:1;stroke:none;stroke-width:1px;stroke-linecap:butt;stroke-linejoin:miter;stroke-opacity:1"
       d="m 81.884563,1040.6186 q 0.175,-0.4625 0.175,-0.8625 0,-0.7375 -0.6,-0.7375 -0.3125,0 -0.575,0.2875 -0.25,0.275 -0.25,0.625 0,0.25 0.2,0.45 0.2875,0.275 1.025,0.725 0.7375,0.45 1.0125,0.825 0.2875,0.3625 0.2875,0.875 0,0.5 -0.25,0.9625 -0.2375,0.4625 -0.675,0.7875 -0.9375,0.7 -2.4375,0.7 -0.8125,0 -1.4375,-0.425 -0.625,-0.4125 -0.625,-0.9 0,-0.4875 0.35,-0.775 0.3625,-0.2875 0.8875,-0.2875 0.525,0 0.85,0.2 -0.1625,0.4125 -0.1625,0.6875 0,0.825 0.7,0.825 0.3,0 0.5,-0.1875 0.2,-0.1875 0.2,-0.5125 0,-0.6375 -1.075,-1.3125 -0.875,-0.575 -1.075,-0.8 -0.3375,-0.4 -0.3375,-0.9 0,-0.5 0.2375,-0.975 0.2375,-0.475 0.675,-0.8125 0.9125,-0.7 2.5,-0.7 0.8125,0 1.2875,0.325 0.4875,0.325 0.4875,0.875 0,0.55 -0.3375,0.8625 -0.325,0.3125 -0.925,0.3125 -0.4125,0 -0.6125,-0.1375 z" />
  </g>
</svg>
