<?xml version="1.0" encoding="UTF-8" standalone="no"?>
<!-- Created with Inkscape (http://www.inkscape.org/) -->

<svg
   xmlns:dc="http://purl.org/dc/elements/1.1/"
   xmlns:cc="http://creativecommons.org/ns#"
   xmlns:rdf="http://www.w3.org/1999/02/22-rdf-syntax-ns#"
   xmlns:svg="http://www.w3.org/2000/svg"
   xmlns="http://www.w3.org/2000/svg"
   xmlns:sodipodi="http://sodipodi.sourceforge.net/DTD/sodipodi-0.dtd"
   xmlns:inkscape="http://www.inkscape.org/namespaces/inkscape"
   width="100"
   height="150"
   viewBox="0 0 100 150"
   id="svg2"
   version="1.1"
   inkscape:version="0.91 r13725"
   sodipodi:docname="logo.svg">
  <defs
     id="defs4" />
  <sodipodi:namedview
     id="base"
     pagecolor="#ffffff"
     bordercolor="#666666"
     borderopacity="1.0"
     inkscape:pageopacity="0.0"
     inkscape:pageshadow="2"
     inkscape:zoom="2"
     inkscape:cx="78.594737"
     inkscape:cy="84.133553"
     inkscape:document-units="px"
     inkscape:current-layer="layer1"
     showgrid="false"
     units="px"
     showguides="false"
     inkscape:guide-bbox="true"
     inkscape:window-width="1280"
     inkscape:window-height="751"
     inkscape:window-x="0"
     inkscape:window-y="1"
     inkscape:window-maximized="1">
    <inkscape:grid
       type="xygrid"
       id="grid3336" />
    <sodipodi:guide
       position="50,50"
       orientation="0,1"
       id="guide3338" />
    <sodipodi:guide
       position="50,50"
       orientation="1,0"
       id="guide3340" />
    <sodipodi:guide
       position="0,100"
       orientation="0,1"
       id="guide3342" />
    <sodipodi:guide
       position="100,0"
       orientation="0,1"
       id="guide3344" />
    <sodipodi:guide
       position="0,100"
       orientation="1,0"
       id="guide3346" />
    <sodipodi:guide
       position="100,0"
       orientation="1,0"
       id="guide3348" />
  </sodipodi:namedview>
  <metadata
     id="metadata7">
    <rdf:RDF>
      <cc:Work
         rdf:about="">
        <dc:format>image/svg+xml</dc:format>
        <dc:type
           rdf:resource="http://purl.org/dc/dcmitype/StillImage" />
        <dc:title />
      </cc:Work>
    </rdf:RDF>
  </metadata>
  <g
     inkscape:label="Layer 1"
     inkscape:groupmode="layer"
     id="layer1"
     transform="translate(0,-902.36219)">
    <path
       style="fill:#393939;fill-opacity:1;fill-rule:evenodd;stroke:#e2e0de;stroke-width:0.4800995;stroke-linecap:butt;stroke-linejoin:miter;stroke-miterlimit:4;stroke-dasharray:none;stroke-opacity:1"
       d="M 98.00995,952.3622 A 48.00995,48.00995 0 0 1 50,1000.3721 48.00995,48.00995 0 0 1 1.9900498,952.3622 48.00995,48.00995 0 0 1 50,904.35223 48.00995,48.00995 0 0 1 98.00995,952.3622 Z"
       id="path3350"
       inkscape:connector-curvature="0"
       inkscape:export-xdpi="90.466324"
       inkscape:export-ydpi="90.466324" />
    <path
       style="fill:#e2e0de;fill-opacity:1;fill-rule:evenodd;stroke:none;stroke-width:1px;stroke-linecap:butt;stroke-linejoin:miter;stroke-opacity:1"
       d="M 97.39268,952.3622 A 47.39268,47.39268 0 0 1 50,999.7548 47.39268,47.39268 0 0 1 2.60732,952.3622 47.39268,47.39268 0 0 1 50,904.9695 47.39268,47.39268 0 0 1 97.39268,952.3622 Z"
       id="circle4183"
       inkscape:connector-curvature="0"
       inkscape:export-xdpi="90.466324"
       inkscape:export-ydpi="90.466324" />
    <path
       style="fill:#393939;fill-opacity:1;fill-rule:evenodd;stroke:none;stroke-width:1px;stroke-linecap:butt;stroke-linejoin:miter;stroke-opacity:1"
       d="M 96.946876,952.3622 A 46.946876,46.946876 0 0 1 50,999.309 46.946876,46.946876 0 0 1 3.0531241,952.3622 46.946876,46.946876 0 0 1 50,905.4153 46.946876,46.946876 0 0 1 96.946876,952.3622 Z"
       id="circle4185"
       inkscape:connector-curvature="0"
       inkscape:export-xdpi="90.466324"
       inkscape:export-ydpi="90.466324" />
    <path
       style="fill:#e2e0de;fill-opacity:1;fill-rule:evenodd;stroke:none;stroke-width:1px;stroke-linecap:butt;stroke-linejoin:miter;stroke-opacity:1"
       d="M 94.409208,952.3622 A 44.409208,44.409208 0 0 1 50,996.7714 44.409208,44.409208 0 0 1 5.5907924,952.3622 44.409208,44.409208 0 0 1 50,907.95298 44.409208,44.409208 0 0 1 94.409208,952.3622 Z"
       id="circle4187"
       inkscape:connector-curvature="0"
       inkscape:export-xdpi="90.466324"
       inkscape:export-ydpi="90.466324" />
    <path
       style="fill:none;fill-rule:evenodd;stroke:#393939;stroke-width:0.4800995;stroke-linecap:square;stroke-linejoin:round;stroke-miterlimit:4;stroke-dasharray:none;stroke-opacity:1"
       d="m 25.995025,976.3672 48.00995,-48.00999 z"
       id="path4154"
       inkscape:connector-curvature="0" />
    <path
       style="fill:none;fill-rule:evenodd;stroke:#393939;stroke-width:0.57611942;stroke-linecap:square;stroke-linejoin:round;stroke-miterlimit:4;stroke-dasharray:none;stroke-opacity:1"
       d="m 25.995025,928.35721 48.00995,48.00999 z"
       id="path4156"
       inkscape:connector-curvature="0" />
    <text
       xml:space="preserve"
       style="font-style:normal;font-variant:normal;font-weight:normal;font-stretch:normal;font-size:40px;line-height:125%;font-family:FontAwesome;-inkscape-font-specification:FontAwesome;letter-spacing:0px;word-spacing:0px;fill:#000000;fill-opacity:1;stroke:none;stroke-width:1px;stroke-linecap:butt;stroke-linejoin:miter;stroke-opacity:1"
       x="-40"
       y="987.36218"
       id="text4150"
       sodipodi:linespacing="125%"><tspan
         sodipodi:role="line"
         id="tspan4152"
         x="-40"
         y="987.36218" /></text>
    <text
       xml:space="preserve"
       style="font-style:normal;font-variant:normal;font-weight:normal;font-stretch:normal;font-size:40px;line-height:125%;font-family:FontAwesome;-inkscape-font-specification:FontAwesome;letter-spacing:0px;word-spacing:0px;fill:#000000;fill-opacity:1;stroke:none;stroke-width:1px;stroke-linecap:butt;stroke-linejoin:miter;stroke-opacity:1"
       x="-45"
       y="997.36218"
       id="text4154"
       sodipodi:linespacing="125%"><tspan
         sodipodi:role="line"
         id="tspan4156"
         x="-45"
         y="997.36218"
         style="font-style:normal;font-variant:normal;font-weight:normal;font-stretch:normal;font-family:FontAwesome;-inkscape-font-specification:FontAwesome" /></text>
    <path
       inkscape:connector-curvature="0"
       id="path3409"
       style="font-style:normal;font-weight:normal;font-size:medium;line-height:125%;font-family:sans-serif;letter-spacing:0px;word-spacing:0px;fill:#393939;fill-opacity:1;stroke:none;stroke-width:1px;stroke-linecap:butt;stroke-linejoin:miter;stroke-opacity:1"
       d="m 47.710954,934.78711 c 0,0.63897 -0.518411,1.15739 -1.157383,1.15739 -0.638971,0 -1.157382,-0.51842 -1.157382,-1.15739 0,-0.63897 0.518411,-1.15738 1.157382,-1.15738 0.638972,0 1.157383,0.51841 1.157383,1.15738 z m 0,-13.88859 c 0,0.63897 -0.518411,1.15738 -1.157383,1.15738 -0.638971,0 -1.157382,-0.51841 -1.157382,-1.15738 0,-0.63897 0.518411,-1.15738 1.157382,-1.15738 0.638972,0 1.157383,0.51841 1.157383,1.15738 z m 7.715885,1.54318 c 0,0.63897 -0.518411,1.15738 -1.157382,1.15738 -0.638972,0 -1.157384,-0.51841 -1.157384,-1.15738 0,-0.63898 0.518412,-1.15739 1.157384,-1.15739 0.638971,0 1.157382,0.51841 1.157382,1.15739 z m 1.157383,0 c 0,-1.27795 -1.036822,-2.31477 -2.314765,-2.31477 -1.277945,0 -2.314766,1.03682 -2.314766,2.31477 0,0.85598 0.470187,1.60345 1.157382,2.0013 -0.02411,2.51972 -1.302055,3.05019 -3.544484,3.7615 -0.590747,0.18084 -1.241776,0.38579 -1.856635,0.68719 l 0,-5.99186 c 0.687196,-0.39785 1.157383,-1.14533 1.157383,-2.00131 0,-1.27794 -1.036823,-2.31477 -2.314766,-2.31477 -1.277943,0 -2.314765,1.03683 -2.314765,2.31477 0,0.85598 0.470186,1.60346 1.157383,2.00131 l 0,9.88598 c -0.687197,0.39785 -1.157383,1.14532 -1.157383,2.0013 0,1.27795 1.036822,2.31477 2.314765,2.31477 1.277943,0 2.314766,-1.03682 2.314766,-2.31477 0,-0.85598 -0.470187,-1.60345 -1.157383,-2.0013 l 0,-0.31346 c 0,-1.16945 0.626916,-1.45879 2.543831,-2.0616 2.049532,-0.65102 5.135886,-1.6155 5.172054,-5.96775 0.687196,-0.39785 1.157383,-1.14532 1.157383,-2.0013 z" />
    <path
       inkscape:connector-curvature="0"
       id="path3406"
       style="font-style:normal;font-weight:normal;font-size:medium;line-height:125%;font-family:sans-serif;letter-spacing:0px;word-spacing:0px;fill:#393939;fill-opacity:1;stroke:none;stroke-width:1px;stroke-linecap:butt;stroke-linejoin:miter;stroke-opacity:1"
       d="m 48.631234,971.6859 c -0.385794,-0.024 -0.409907,0.2532 -0.289346,0.2411 0.132617,0 0.04822,-0.217 0.289346,-0.2411 z m 1.048879,0.1688 c 0.12056,-0.048 0,-0.2894 -0.349627,-0.1326 0.21701,-0.06 0.229066,0.1688 0.349627,0.1326 z m -4.231681,5.1479 c 0.09645,0.036 0.03617,0.1447 -0.02411,0.3496 -0.07233,0.1688 -0.241121,0.3135 -0.301401,0.3014 -0.168785,-0.024 0.04822,-0.1446 0.132617,-0.3014 0.108504,-0.1687 0.08439,-0.3858 0.192897,-0.3496 z m 10.30794,4.3281 c -0.494299,-0.3978 -1.977196,-0.4701 -2.013365,0.4943 -0.265232,0 -0.45813,0.024 -0.614859,0.217 -0.602803,0.7114 -0.04822,2.134 -0.108505,2.9056 -0.04822,0.6751 -0.241121,1.3382 -0.337569,2.0134 -0.361682,-0.013 -0.325514,-0.2653 -0.21701,-0.6391 0.108506,-0.3255 0.265234,-0.7233 0.27729,-1.1091 0.01206,-0.3617 -0.02411,-0.5787 -0.12056,-0.6269 -0.08439,-0.061 -0.21701,0.048 -0.409907,0.3617 -0.409906,0.6631 -1.302055,0.9524 -2.133925,1.0488 -0.819812,0.1085 -1.591401,0.024 -2.001307,-0.434 -0.132617,-0.1567 -0.373738,0.048 -0.397851,0.084 -0.03617,0.061 0.132617,0.1688 0.265234,0.4099 0.192897,0.3376 0.373738,0.8681 -0.08439,1.1093 0.01206,-1.2178 -0.373738,-1.2901 -0.771588,-2.0376 0.771588,-0.084 0.880094,-0.9042 0.506355,-1.2538 -0.289346,-0.3014 -1.953084,-1.5312 -2.375046,-2.0134 -0.204953,-0.217 -0.482243,-0.3255 -0.590747,-0.5787 -0.265234,-0.5787 -0.446075,-1.4105 -0.120561,-2.0012 0.06028,-0.1085 0.108505,-0.061 0.06028,0.1567 -0.265234,1.2658 0.554579,2.3026 0.73542,1.7722 0.132617,-0.3617 0.01206,-1.0127 0.08439,-1.5432 0.12056,-0.9162 0.952429,-2.6885 1.326167,-2.7849 -0.566636,-1.061 0.663084,-1.8808 0.651027,-2.809 -0.01205,-0.6028 0.530468,0.7354 1.072991,1.0247 0.602803,0.3134 1.265887,-0.6028 2.206261,-1.0609 0.265234,-0.1326 0.602803,-0.2773 0.578692,-0.3979 -0.108506,-0.5426 -1.22972,0.6752 -2.24243,0.7113 -0.45813,0.013 -0.626916,-0.096 -0.807757,-0.2652 -0.530466,-0.5184 0.06028,-0.084 0.855981,-0.2291 0.349627,-0.06 0.470188,-0.1205 0.843926,-0.2772 0.385793,-0.1447 0.807756,-0.3739 1.229718,-0.4944 0.301403,-0.072 0.27729,-0.3014 0.156729,-0.3617 -0.06028,-0.037 -0.156729,-0.037 -0.241121,0.096 -0.180841,0.3135 -1.036822,0.4943 -1.302056,0.5788 -0.349625,0.1085 -0.723364,0.205 -1.229719,0.1809 -0.771588,-0.024 -0.590747,-0.3859 -1.145326,-0.6994 -0.15673,-0.085 -0.108505,-0.3255 0.09645,-0.5425 0.120561,-0.1085 0.421962,-0.1808 0.578692,-0.434 0.02411,-0.037 0.217009,-0.2411 0.373738,-0.3496 0.04822,-0.037 0.04822,-0.9765 -0.421962,-0.9886 -0.409907,-0.013 -0.530468,0.3014 -0.518412,0.6149 0.02411,0.3134 0.192898,0.5786 0.301402,0.5786 0.21701,-0.011 0.01206,0.2291 -0.108504,0.2653 -0.180841,0.061 -0.421963,-0.6993 -0.385795,-1.0609 0.02411,-0.3858 0.21701,-1.061 0.699252,-1.0489 0.434019,0.012 0.747477,0.5546 0.735421,1.4949 0,0.1567 0.699251,-0.072 0.940373,0.1809 0.168785,0.1687 -0.578691,-1.6637 1.085046,-1.7964 0.434019,0.085 0.855981,0.2291 1.024766,1.2418 -0.06028,0.096 0.108505,0.7957 -0.156728,0.8801 -0.325515,0.1085 -0.530468,-0.013 -0.337571,-0.3255 0.120561,-0.3135 0,-1.1092 -0.663083,-1.061 -0.67514,0.037 -0.578692,1.2297 -0.397851,1.2539 0.180841,0.024 0.638972,0.3496 0.964486,0.4098 1.048878,0.205 0.277289,0.8078 0.409906,1.5433 0.156729,0.8198 0.699253,0.6028 1.193552,2.7969 0.09645,0.1327 0.506354,0.2532 0.904205,1.9411 0.349625,1.507 -0.144674,2.6161 0.699251,2.5197 0.192897,-0.013 0.482244,-0.072 0.602804,-0.5064 0.313458,-1.1091 -0.168785,-2.4473 -0.651028,-3.3516 -0.277289,-0.5304 -0.542523,-0.88 -0.687196,-1.0006 0.554579,0.3255 1.265888,1.3744 1.434672,2.146 0.21701,1.0248 0.361682,1.4588 0.03617,2.5438 0.192897,0.085 0.663085,0.2893 0.663085,0.5063 z m -7.571212,-9.9703 c 0,0.036 -0.02411,0.036 -0.03617,0.036 -0.108506,0 -0.120561,-0.096 -0.09645,-0.2412 0.02411,-0.1085 -0.03617,-0.1808 -0.08439,-0.1808 -0.07234,0.024 -0.09645,-0.1929 0.04822,-0.1567 0.07234,0.024 0.217009,0.2411 0.168785,0.5425 z m 5.051493,2.3751 c 0.03617,0.1688 -0.07234,0.3617 -0.21701,0.3376 -0.241121,-0.048 -0.807756,-0.6269 -0.554579,-0.9043 0.08439,-0.084 0.132617,0.1568 0.361682,0.3015 0.192897,0.1205 0.361683,0.036 0.409907,0.2652 z m -2.14598,-2.568 c 0,0.036 -0.120561,0.084 -0.120561,0.06 -0.02411,-0.1809 -0.120561,-0.3496 -0.21701,-0.3737 -0.07234,-0.024 -0.12056,-0.096 0.03617,-0.1085 0.06028,-0.013 0.313457,0.1326 0.301402,0.4219 z m 0.651027,-2.8091 c -0.06028,0.1326 -0.337569,0.096 -0.39785,0.1206 -0.229066,0.084 -0.301402,0.3015 -0.409907,0.217 -0.12056,-0.096 0.06028,-0.205 0.108505,-0.3376 0.03617,-0.1206 -0.08439,-0.3737 0.156729,-0.3978 0.09645,0 0.192897,0.085 0.289346,0.1808 0.108504,0.085 0.265233,0.1567 0.253177,0.217 z m 6.81168,16.1672 c -0.33757,-0.217 -1.157383,-0.446 -1.229719,-2.0133 -0.313458,0.2773 -0.27729,1.7361 0.590748,2.0254 0.964485,0.3255 1.567288,0.868 -0.229066,1.4829 -1.181496,0.4099 -1.386448,0.5304 -2.326822,1.3141 -0.952429,0.7957 -2.375045,0.4823 -2.121868,-1.1815 0.132617,-0.8801 0.204953,-1.5914 -0.01206,-2.3509 -0.108504,-0.3617 -0.156729,-0.8439 -0.08439,-1.1694 0.132617,-0.6511 0.482243,-0.844 0.83187,-0.2291 0.217008,0.3979 0.289345,0.856 1.060933,0.8921 1.205608,0.048 1.446729,-1.1695 1.832524,-1.2297 0.253176,-0.036 0.51841,-0.7716 0.325513,-1.9531 -0.217009,-1.2658 -0.964486,-3.2552 -1.916915,-4.2678 -0.795701,-0.844 -1.289999,-1.5794 -1.603457,-2.6283 -0.265234,-0.8921 -0.409907,-1.7481 -0.361682,-2.58 0.07233,-1.0609 -0.518412,-2.5438 -1.458785,-3.2431 -0.590747,-0.434 -1.519065,-0.6751 -2.350933,-0.663 -0.470188,0 -0.916262,0.072 -1.253832,0.2531 -1.398504,0.7596 -1.591401,1.8447 -1.567289,3.0864 0.02411,1.1574 0.06028,2.4835 0.192897,3.7374 -0.156729,0.5787 -0.976542,1.6758 -1.494952,2.3509 -0.699253,0.6872 -1.048879,2.0255 -1.50701,3.1949 -0.241121,0.6148 -0.638971,0.9042 -0.67514,1.6999 -0.01205,0.229 0,0.8077 0.204954,0.6389 0.819813,-0.6269 1.844579,0.9646 3.399812,3.3999 0.289345,0.4701 1.338224,2.4353 -0.494299,2.6885 -0.61486,0.084 -1.603457,-0.3496 -2.555887,-0.5907 -0.855981,-0.205 -1.736074,-0.3376 -2.218317,-0.4703 -0.301402,-0.084 -0.421963,-0.1929 -0.446074,-0.3135 -0.07234,-0.3255 0.361682,-0.7836 0.373738,-1.1694 0.02411,-0.3858 -0.132617,-0.5907 -0.265234,-0.9042 -0.132617,-0.3134 -0.168785,-0.5545 -0.06028,-0.6871 0.07233,-0.1085 0.241121,-0.1447 0.51841,-0.1206 0.349627,0.036 0.771589,-0.037 1.000654,-0.1808 0.373739,-0.2291 0.55458,-0.6993 0.385795,-1.278 0,0.5667 -0.192897,0.7716 -0.651028,1.0368 -0.434018,0.2412 -1.097103,0.036 -1.410561,0.3135 -0.361682,0.3135 0.132617,1.1453 0.09645,1.7601 -0.03617,0.4582 -0.518411,0.9886 -0.301401,1.4588 0.217009,0.4703 1.241775,0.5306 2.302709,0.7476 1.519065,0.3134 2.399158,0.868 3.09841,0.8921 1.024766,0.036 1.181495,-0.9886 2.772896,-1.0248 0.470187,-0.012 0.928318,-0.036 1.386448,-0.048 0.518412,0 1.036822,0 1.56729,0.012 1.060933,0.036 0.699251,0.5907 1.386447,0.9404 0.590748,0.3014 1.639626,0.1809 1.892803,-0.061 0.337571,-0.3256 1.253832,-1.0972 1.941027,-1.4468 0.880094,-0.4461 2.91757,-1.2056 1.434673,-2.1219 z" />
    <text
       xml:space="preserve"
       style="font-style:normal;font-weight:normal;font-size:22.5px;line-height:125%;font-family:sans-serif;letter-spacing:0px;word-spacing:0px;fill:#000000;fill-opacity:1;stroke:none;stroke-width:1px;stroke-linecap:butt;stroke-linejoin:miter;stroke-opacity:1"
       x="-10"
       y="977.36218"
       id="text4166"
       sodipodi:linespacing="125%"><tspan
         sodipodi:role="line"
         id="tspan4168"
         x="-10"
         y="977.36218" /></text>
    <path
       style="fill:#393939;fill-opacity:1;fill-rule:evenodd;stroke:#e2e0de;stroke-width:1px;stroke-linecap:round;stroke-linejoin:round;stroke-opacity:1"
       d="m 95,1051.3622 -60,0 0,-20 60,0 -10,10 z"
       id="path4162"
       inkscape:connector-curvature="0" />
    <path
       style="fill:#e2e0de;fill-opacity:1;fill-rule:evenodd;stroke:#e2e0de;stroke-width:1px;stroke-linecap:round;stroke-linejoin:round;stroke-opacity:1"
       d="m 75,1026.3622 -10,5 -30,0 10,-5 z"
       id="path4172"
       inkscape:connector-curvature="0" />
    <path
       style="fill:#393939;fill-opacity:1;fill-rule:evenodd;stroke:#e2e0de;stroke-width:1px;stroke-linecap:round;stroke-linejoin:round;stroke-opacity:1"
       d="m 75,1026.3622 0,-20 -66,0 10,10 -10,10 z"
       id="path4174"
       inkscape:connector-curvature="0"
       sodipodi:nodetypes="cccccc" />
    <g
       style="font-style:normal;font-weight:normal;font-size:13.75px;line-height:125%;font-family:sans-serif;letter-spacing:0px;word-spacing:0px;fill:#e2e0de;fill-opacity:1;stroke:none;stroke-width:1px;stroke-linecap:butt;stroke-linejoin:miter;stroke-opacity:1"
       id="text3374">
      <path
         d="m 23.0725,1020.6122 -0.17875,0 0,-9.625 0.4675,0 5.72,8.8962 0,-8.8962 0.17875,0 0,9.625 -1.00375,0 -5.18375,-7.975 0,7.975 z"
         style="font-style:normal;font-variant:normal;font-weight:normal;font-stretch:normal;font-size:13.75px;font-family:Italiana;-inkscape-font-specification:Italiana;fill:#e2e0de;fill-opacity:1"
         id="path4216" />
      <path
         d="m 32.089707,1020.6122 q -0.56375,0 -0.86625,-0.2475 -0.28875,-0.2475 -0.3025,-0.495 l -0.01375,-0.2338 0,-5.8987 0.9625,0 0,5.8987 q 0,0.3988 0.15125,0.6188 0.165,0.2062 0.31625,0.22 l 0.165,0.028 0.42625,0 0,0.11 -0.83875,0 z m -1.1,-8.415 q -0.165,-0.165 -0.165,-0.4125 0,-0.2475 0.165,-0.4125 0.165,-0.1788 0.4125,-0.1788 0.2475,0 0.4125,0.1788 0.17875,0.165 0.17875,0.4125 0,0.2475 -0.17875,0.4125 -0.165,0.165 -0.4125,0.165 -0.2475,0 -0.4125,-0.165 z"
         style="font-style:normal;font-variant:normal;font-weight:normal;font-stretch:normal;font-size:13.75px;font-family:Italiana;-inkscape-font-specification:Italiana;fill:#e2e0de;fill-opacity:1"
         id="path4218" />
      <path
         d="m 36.563398,1013.7922 q -0.97625,0 -1.63625,0.935 -0.64625,0.935 -0.64625,2.585 0,1.65 0.59125,2.4475 0.605,0.7975 1.58125,0.7975 1.22375,0 2.1725,-0.4125 l 0.04125,0.096 q -0.97625,0.4263 -2.2825,0.4263 -1.30625,0 -2.1725,-0.825 -0.86625,-0.825 -0.86625,-2.5438 0,-1.7187 0.9075,-2.6675 0.9075,-0.9487 2.31,-0.9487 0.78375,0 1.44375,0.3575 0.67375,0.3575 0.99,1.0862 l -0.88,0 q -0.20625,-0.6737 -0.6325,-1.0037 -0.4125,-0.33 -0.92125,-0.33 z"
         style="font-style:normal;font-variant:normal;font-weight:normal;font-stretch:normal;font-size:13.75px;font-family:Italiana;-inkscape-font-specification:Italiana;fill:#e2e0de;fill-opacity:1"
         id="path4220" />
      <path
         d="m 45.727344,1020.6122 q -0.56375,0 -0.86625,-0.2475 -0.28875,-0.2475 -0.3025,-0.495 l -0.01375,-0.2338 0,-4.3175 q 0,-1.0862 -0.5775,-1.3887 -0.275,-0.1375 -0.70125,-0.1375 -0.8525,0 -1.54,0.7012 -0.67375,0.6875 -0.67375,1.2375 l 0,4.8813 -0.9625,0 0,-10.2988 0.9625,0 0,4.9913 q 0.22,-0.5913 0.83875,-1.1 0.61875,-0.5225 1.38875,-0.5225 1.33375,0 1.77375,0.4675 0.45375,0.4537 0.45375,1.1825 l 0,4.3037 q 0,0.3988 0.15125,0.6188 0.165,0.2062 0.31625,0.22 l 0.165,0.028 0.42625,0 0,0.11 -0.83875,0 z"
         style="font-style:normal;font-variant:normal;font-weight:normal;font-stretch:normal;font-size:13.75px;font-family:Italiana;-inkscape-font-specification:Italiana;fill:#e2e0de;fill-opacity:1"
         id="path4222" />
      <path
         d="m 50.46207,1020.6672 q -1.44375,0 -2.35125,-0.825 -0.9075,-0.825 -0.9075,-2.5438 0,-1.7187 0.935,-2.6675 0.94875,-0.9487 2.3925,-0.9487 1.4575,0 2.365,0.825 0.9075,0.825 0.9075,2.5437 0,1.7188 -0.94875,2.6675 -0.935,0.9488 -2.3925,0.9488 z m 0.09625,-6.875 q -1.045,0 -1.7325,0.935 -0.6875,0.9212 -0.6875,2.585 0,1.65 0.6325,2.4475 0.6325,0.7975 1.6775,0.7975 1.045,0 1.7325,-0.9213 0.6875,-0.935 0.6875,-2.585 0,-1.6637 -0.6325,-2.4612 -0.6325,-0.7975 -1.6775,-0.7975 z"
         style="font-style:normal;font-variant:normal;font-weight:normal;font-stretch:normal;font-size:13.75px;font-family:Italiana;-inkscape-font-specification:Italiana;fill:#e2e0de;fill-opacity:1"
         id="path4224" />
      <path
         d="m 56.630234,1020.6122 q -1.21,0 -1.52625,-0.6325 -0.06875,-0.1375 -0.06875,-0.2475 l 0,-9.4188 0.9625,0 0,9.3225 q 0,0.3988 0.15125,0.6188 0.165,0.2062 0.33,0.22 l 0.15125,0.028 0.42625,0 0,0.11 -0.42625,0 z"
         style="font-style:normal;font-variant:normal;font-weight:normal;font-stretch:normal;font-size:13.75px;font-family:Italiana;-inkscape-font-specification:Italiana;fill:#e2e0de;fill-opacity:1"
         id="path4226" />
      <path
         d="m 63.48998,1020.6122 q -0.935,0 -1.27875,-0.3575 -0.31625,-0.3025 -0.31625,-0.5225 l 0,-0.2888 q -0.67375,1.2238 -2.15875,1.2238 -1.7325,0 -1.96625,-1.5675 -0.0275,-0.165 -0.0275,-0.33 0,-0.1788 0.055,-0.385 0.055,-0.2063 0.31625,-0.4538 0.5225,-0.495 2.29625,-0.605 0.44,-0.041 0.81125,-0.041 0.37125,0 0.67375,0.027 l 0,-2.2825 q -0.0275,-0.014 0,-0.1238 0.0275,-0.1237 -0.055,-0.3025 -0.06875,-0.1925 -0.1925,-0.3712 -0.12375,-0.1788 -0.44,-0.3025 -0.31625,-0.1375 -0.825,-0.1375 -0.50875,0 -1.19625,0.1925 -0.67375,0.1787 -0.99,0.3575 l -0.055,-0.096 q 1.22375,-0.5637 2.48875,-0.5637 1.41625,0 1.87,0.5087 0.3575,0.3988 0.3575,0.8388 l 0,4.6062 q 0,0.3988 0.15125,0.6188 0.165,0.2062 0.33,0.22 l 0.15125,0.028 0.42625,0 0,0.11 -0.42625,0 z m -3.53375,-0.055 q 0.72875,0 1.30625,-0.495 0.59125,-0.5088 0.6325,-0.9763 l 0,-1.6637 q -0.37125,-0.028 -0.75625,-0.028 -0.37125,0 -0.7425,0.041 -1.045,0.1238 -1.36125,0.4675 -0.31625,0.3438 -0.31625,0.9488 0,0.11 0.01375,0.2475 0.12375,1.4575 1.22375,1.4575 z"
         style="font-style:normal;font-variant:normal;font-weight:normal;font-stretch:normal;font-size:13.75px;font-family:Italiana;-inkscape-font-specification:Italiana;fill:#e2e0de;fill-opacity:1"
         id="path4228" />
      <path
         d="m 68.70123,1014.2184 q -0.22,-0.1787 -0.715,-0.3025 -0.48125,-0.1237 -0.72875,-0.1237 -0.2475,0 -0.28875,0 -0.7425,0.014 -1.0725,0.385 -0.33,0.3575 -0.33,0.8112 0,0.4538 0.28875,0.77 0.28875,0.3025 0.715,0.4813 0.44,0.165 0.935,0.385 0.50875,0.22 0.935,0.4537 0.44,0.22 0.72875,0.66 0.28875,0.4263 0.28875,1.0725 0,0.6463 -0.45375,1.1 -0.45375,0.4538 -1.0175,0.605 -0.55,0.1513 -1.19625,0.1513 -1.4025,0 -2.10375,-0.6188 l 0.0825,-0.082 q 0.275,0.2613 0.81125,0.4263 0.55,0.165 1.05875,0.165 0.81125,0 1.33375,-0.44 0.53625,-0.4538 0.53625,-1.1138 0,-0.6737 -0.39875,-1.0725 -0.39875,-0.4125 -0.97625,-0.6325 -0.56375,-0.2337 -1.14125,-0.4537 -0.5775,-0.2338 -0.97625,-0.6325 -0.39875,-0.4125 -0.39875,-0.9488 0,-0.5362 0.2475,-0.8662 0.2475,-0.3438 0.66,-0.4813 0.70125,-0.2337 1.4025,-0.2337 1.1825,0 1.8425,0.44 l -0.06875,0.096 z"
         style="font-style:normal;font-variant:normal;font-weight:normal;font-stretch:normal;font-size:13.75px;font-family:Italiana;-inkscape-font-specification:Italiana;fill:#e2e0de;fill-opacity:1"
         id="path4230" />
    </g>
    <g
       style="font-style:normal;font-weight:normal;font-size:13.75px;line-height:125%;font-family:sans-serif;letter-spacing:0px;word-spacing:0px;fill:#e2e0de;fill-opacity:1;stroke:none;stroke-width:1px;stroke-linecap:butt;stroke-linejoin:miter;stroke-opacity:1"
       id="text3378">
      <path
         d="m 39.2125,1036.0972 q 1.595,-0.11 2.81875,-0.11 3.39625,0 3.39625,2.2687 0,0.9625 -0.4675,1.7188 -0.4675,0.7562 -1.60875,1.0037 l 2.75,4.6338 -1.27875,0 -2.695,-4.5513 -1.77375,0 0,4.5513 -1.14125,0 0,-9.515 z m 2.81875,0.028 q -0.7975,0 -1.6775,0.096 l 0,4.7025 2.035,0 q 1.93875,-0.082 1.93875,-2.64 0,-1.045 -0.5775,-1.595 -0.5775,-0.5637 -1.71875,-0.5637 z"
         style="font-style:normal;font-variant:normal;font-weight:normal;font-stretch:normal;font-size:13.75px;font-family:Italiana;-inkscape-font-specification:Italiana;fill:#e2e0de;fill-opacity:1"
         id="path4201" />
      <path
         d="m 50.169102,1045.6672 q -1.44375,0 -2.35125,-0.825 -0.9075,-0.825 -0.9075,-2.5438 0,-1.7187 0.935,-2.6675 0.94875,-0.9487 2.3925,-0.9487 1.4575,0 2.365,0.825 0.9075,0.825 0.9075,2.5437 0,1.7188 -0.94875,2.6675 -0.935,0.9488 -2.3925,0.9488 z m 0.09625,-6.875 q -1.045,0 -1.7325,0.935 -0.6875,0.9212 -0.6875,2.585 0,1.65 0.6325,2.4475 0.6325,0.7975 1.6775,0.7975 1.045,0 1.7325,-0.9213 0.6875,-0.935 0.6875,-2.585 0,-1.6637 -0.6325,-2.4612 -0.6325,-0.7975 -1.6775,-0.7975 z"
         style="font-style:normal;font-variant:normal;font-weight:normal;font-stretch:normal;font-size:13.75px;font-family:Italiana;-inkscape-font-specification:Italiana;fill:#e2e0de;fill-opacity:1"
         id="path4203" />
      <path
         d="m 54.322461,1035.3134 0.9625,0 0,5.1288 q 0.23375,-0.6325 0.86625,-1.1963 0.6325,-0.5637 1.43,-0.5637 2.79125,0 2.79125,3.2725 0,3.7125 -3.6025,3.7125 -1.05875,0 -2.4475,-0.3438 l 0,-10.01 z m 3.245,3.4788 q -0.8525,0 -1.54,0.7425 -0.6875,0.7287 -0.7425,1.32 l 0,4.3862 q 0.83875,0.3163 1.47125,0.3163 2.65375,0 2.65375,-3.6163 0,-3.1487 -1.8425,-3.1487 z"
         style="font-style:normal;font-variant:normal;font-weight:normal;font-stretch:normal;font-size:13.75px;font-family:Italiana;-inkscape-font-specification:Italiana;fill:#e2e0de;fill-opacity:1"
         id="path4205" />
      <path
         d="m 62.37416,1042.2572 q 0,1.705 0.59125,2.5025 0.605,0.7975 1.58125,0.7975 1.375,0 2.4475,-0.4125 l 0.04125,0.096 q -1.1,0.4263 -2.48875,0.4263 -1.375,0 -2.24125,-0.825 -0.86625,-0.825 -0.86625,-2.5438 0,-1.7187 0.9075,-2.6675 0.9075,-0.9487 2.31,-0.9487 1.1275,0 1.8975,0.6737 0.77,0.6738 0.77,1.9938 0,0.069 0,0.1375 l -4.90875,0 q -0.04125,0.3712 -0.04125,0.77 z m 4.015,-0.88 q -0.01375,-1.32 -0.50875,-1.9525 -0.495,-0.6325 -1.27875,-0.6325 -0.78375,0 -1.4025,0.6875 -0.605,0.6875 -0.77,1.8975 l 3.96,0 z"
         style="font-style:normal;font-variant:normal;font-weight:normal;font-stretch:normal;font-size:13.75px;font-family:Italiana;-inkscape-font-specification:Italiana;fill:#e2e0de;fill-opacity:1"
         id="path4207" />
      <path
         d="m 70.510723,1039.3284 0,-0.2887 q -0.61875,0.2475 -1.1275,1.0037 -0.50875,0.7425 -0.53625,1.4025 l 0,4.1663 -0.9625,0 0,-6.875 0.9625,0 0,2.1862 q 0.22,-0.7975 0.83875,-1.4987 0.61875,-0.715 1.4025,-0.7425 l 0.055,0 q 0.275,0 0.45375,0.1925 0.1925,0.1787 0.1925,0.4537 0,0.275 -0.1925,0.4538 -0.17875,0.1787 -0.45375,0.1787 -0.275,0 -0.45375,-0.1787 -0.17875,-0.1788 -0.17875,-0.4538 z"
         style="font-style:normal;font-variant:normal;font-weight:normal;font-stretch:normal;font-size:13.75px;font-family:Italiana;-inkscape-font-specification:Italiana;fill:#e2e0de;fill-opacity:1"
         id="path4209" />
      <path
         d="m 72.757129,1038.8472 0,-0.11 0.28875,0 0,-1.375 0.9625,0 0,1.375 2.10375,0 0,0.11 -2.10375,0 0,5.005 q 0,0.8937 0.1925,1.2925 0.20625,0.3987 0.83875,0.3987 0.64625,0 1.30625,-0.2612 l 0.04125,0.11 q -0.6875,0.2612 -1.58125,0.2612 -0.88,0 -1.32,-0.3575 -0.44,-0.3712 -0.44,-1.4575 l 0,-4.9912 -0.28875,0 z"
         style="font-style:normal;font-variant:normal;font-weight:normal;font-stretch:normal;font-size:13.75px;font-family:Italiana;-inkscape-font-specification:Italiana;fill:#e2e0de;fill-opacity:1"
         id="path4211" />
      <path
         d="m 81.325742,1039.2184 q -0.22,-0.1787 -0.715,-0.3025 -0.48125,-0.1237 -0.72875,-0.1237 -0.2475,0 -0.28875,0 -0.7425,0.014 -1.0725,0.385 -0.33,0.3575 -0.33,0.8112 0,0.4538 0.28875,0.77 0.28875,0.3025 0.715,0.4813 0.44,0.165 0.935,0.385 0.50875,0.22 0.935,0.4537 0.44,0.22 0.72875,0.66 0.28875,0.4263 0.28875,1.0725 0,0.6463 -0.45375,1.1 -0.45375,0.4538 -1.0175,0.605 -0.55,0.1513 -1.19625,0.1513 -1.4025,0 -2.10375,-0.6188 l 0.0825,-0.082 q 0.275,0.2613 0.81125,0.4263 0.55,0.165 1.05875,0.165 0.81125,0 1.33375,-0.44 0.53625,-0.4538 0.53625,-1.1138 0,-0.6737 -0.39875,-1.0725 -0.39875,-0.4125 -0.97625,-0.6325 -0.56375,-0.2337 -1.14125,-0.4537 -0.5775,-0.2338 -0.97625,-0.6325 -0.39875,-0.4125 -0.39875,-0.9488 0,-0.5362 0.2475,-0.8662 0.2475,-0.3438 0.66,-0.4813 0.70125,-0.2337 1.4025,-0.2337 1.1825,0 1.8425,0.44 l -0.06875,0.096 z"
         style="font-style:normal;font-variant:normal;font-weight:normal;font-stretch:normal;font-size:13.75px;font-family:Italiana;-inkscape-font-specification:Italiana;fill:#e2e0de;fill-opacity:1"
         id="path4213" />
    </g>
    <g
       style="font-style:normal;font-variant:normal;font-weight:normal;font-stretch:normal;font-size:27.5px;line-height:125%;font-family:Italiana;-inkscape-font-specification:Italiana;letter-spacing:0px;word-spacing:0px;fill:#393939;fill-opacity:1;stroke:none;stroke-width:1px;stroke-linecap:butt;stroke-linejoin:miter;stroke-opacity:1"
       id="text4186"
       inkscape:export-xdpi="90.466324"
       inkscape:export-ydpi="90.466324">
      <path
         d="m 17.145,962.11218 -0.3575,0 0,-19.25 0.935,0 11.44,17.7925 0,-17.7925 0.3575,0 0,19.25 -2.0075,0 -10.3675,-15.95 0,15.95 z"
         id="path4198"
         style="" />
    </g>
    <g
       style="font-style:normal;font-variant:normal;font-weight:normal;font-stretch:normal;font-size:27.5px;line-height:125%;font-family:Italiana;-inkscape-font-specification:Italiana;letter-spacing:0px;word-spacing:0px;fill:#393939;fill-opacity:1;stroke:none;stroke-width:1px;stroke-linecap:butt;stroke-linejoin:miter;stroke-opacity:1"
       id="text4190">
      <path
         d="m 70.175,943.08218 q 3.19,-0.22 5.6375,-0.22 6.7925,0 6.7925,4.5375 0,1.925 -0.935,3.4375 -0.935,1.5125 -3.2175,2.0075 l 5.5,9.2675 -2.5575,0 -5.39,-9.1025 -3.5475,0 0,9.1025 -2.2825,0 0,-19.03 z m 5.6375,0.055 q -1.595,0 -3.355,0.1925 l 0,9.405 4.07,0 q 3.8775,-0.165 3.8775,-5.28 0,-2.09 -1.155,-3.19 -1.155,-1.1275 -3.4375,-1.1275 z"
         id="path4195"
         style="" />
    </g>
  </g>
</svg>
