<?xml version="1.0" encoding="UTF-8" standalone="no"?>
<!-- Created with Inkscape (http://www.inkscape.org/) -->

<svg
   xmlns:dc="http://purl.org/dc/elements/1.1/"
   xmlns:cc="http://creativecommons.org/ns#"
   xmlns:rdf="http://www.w3.org/1999/02/22-rdf-syntax-ns#"
   xmlns:svg="http://www.w3.org/2000/svg"
   xmlns="http://www.w3.org/2000/svg"
   xmlns:sodipodi="http://sodipodi.sourceforge.net/DTD/sodipodi-0.dtd"
   xmlns:inkscape="http://www.inkscape.org/namespaces/inkscape"
   width="100"
   height="150"
   viewBox="0 0 100 150"
   id="svg2"
   version="1.1"
   inkscape:version="0.91 r13725"
   sodipodi:docname="logo.svg">
  <defs
     id="defs4" />
  <sodipodi:namedview
     id="base"
     pagecolor="#ffffff"
     bordercolor="#666666"
     borderopacity="1.0"
     inkscape:pageopacity="0.0"
     inkscape:pageshadow="2"
     inkscape:zoom="2"
     inkscape:cx="78.594737"
     inkscape:cy="84.133553"
     inkscape:document-units="px"
     inkscape:current-layer="layer1"
     showgrid="false"
     units="px"
     showguides="false"
     inkscape:guide-bbox="true"
     inkscape:window-width="1280"
     inkscape:window-height="751"
     inkscape:window-x="0"
     inkscape:window-y="1"
     inkscape:window-maximized="1">
    <inkscape:grid
       type="xygrid"
       id="grid3336" />
    <sodipodi:guide
       position="50,50"
       orientation="0,1"
       id="guide3338" />
    <sodipodi:guide
       position="50,50"
       orientation="1,0"
       id="guide3340" />
    <sodipodi:guide
       position="0,100"
       orientation="0,1"
       id="guide3342" />
    <sodipodi:guide
       position="100,0"
       orientation="0,1"
       id="guide3344" />
    <sodipodi:guide
       position="0,100"
       orientation="1,0"
       id="guide3346" />
    <sodipodi:guide
       position="100,0"
       orientation="1,0"
       id="guide3348" />
  </sodipodi:namedview>
  <metadata
     id="metadata7">
    <rdf:RDF>
      <cc:Work
         rdf:about="">
        <dc:format>image/svg+xml</dc:format>
        <dc:type
           rdf:resource="http://purl.org/dc/dcmitype/StillImage" />
        <dc:title></dc:title>
      </cc:Work>
    </rdf:RDF>
  </metadata>
  <g
     inkscape:label="Layer 1"
     inkscape:groupmode="layer"
     id="layer1"
     transform="translate(0,-902.36219)">
    <path
       style="fill:#393939;fill-opacity:1;fill-rule:evenodd;stroke:#e2e0de;stroke-width:0.4800995;stroke-linecap:butt;stroke-linejoin:miter;stroke-miterlimit:4;stroke-dasharray:none;stroke-opacity:1"
       d="M 98.00995,952.3622 A 48.00995,48.00995 0 0 1 50,1000.3721 48.00995,48.00995 0 0 1 1.9900498,952.3622 48.00995,48.00995 0 0 1 50,904.35223 48.00995,48.00995 0 0 1 98.00995,952.3622 Z"
       id="path3350"
       inkscape:connector-curvature="0" />
    <path
       style="fill:#e2e0de;fill-opacity:1;fill-rule:evenodd;stroke:none;stroke-width:1px;stroke-linecap:butt;stroke-linejoin:miter;stroke-opacity:1"
       d="M 97.39268,952.3622 A 47.39268,47.39268 0 0 1 50,999.7548 47.39268,47.39268 0 0 1 2.60732,952.3622 47.39268,47.39268 0 0 1 50,904.9695 47.39268,47.39268 0 0 1 97.39268,952.3622 Z"
       id="circle4183"
       inkscape:connector-curvature="0" />
    <path
       style="fill:#393939;fill-opacity:1;fill-rule:evenodd;stroke:none;stroke-width:1px;stroke-linecap:butt;stroke-linejoin:miter;stroke-opacity:1"
       d="M 96.946876,952.3622 A 46.946876,46.946876 0 0 1 50,999.309 46.946876,46.946876 0 0 1 3.0531241,952.3622 46.946876,46.946876 0 0 1 50,905.4153 46.946876,46.946876 0 0 1 96.946876,952.3622 Z"
       id="circle4185"
       inkscape:connector-curvature="0" />
    <path
       style="fill:#e2e0de;fill-opacity:1;fill-rule:evenodd;stroke:none;stroke-width:1px;stroke-linecap:butt;stroke-linejoin:miter;stroke-opacity:1"
       d="M 94.409208,952.3622 A 44.409208,44.409208 0 0 1 50,996.7714 44.409208,44.409208 0 0 1 5.5907924,952.3622 44.409208,44.409208 0 0 1 50,907.95298 44.409208,44.409208 0 0 1 94.409208,952.3622 Z"
       id="circle4187"
       inkscape:connector-curvature="0" />
    <path
       style="fill:none;fill-rule:evenodd;stroke:#393939;stroke-width:0.4800995;stroke-linecap:square;stroke-linejoin:round;stroke-miterlimit:4;stroke-dasharray:none;stroke-opacity:1"
       d="m 195.49502,908.3672 48.00995,-48.00999 z"
       id="path4154"
       inkscape:connector-curvature="0" />
    <path
       style="fill:none;fill-rule:evenodd;stroke:#393939;stroke-width:0.57611942;stroke-linecap:square;stroke-linejoin:round;stroke-miterlimit:4;stroke-dasharray:none;stroke-opacity:1"
       d="m 210.49502,914.35721 48.00995,48.00999 z"
       id="path4156"
       inkscape:connector-curvature="0" />
    <text
       xml:space="preserve"
       style="font-style:normal;font-variant:normal;font-weight:normal;font-stretch:normal;font-size:40px;line-height:125%;font-family:FontAwesome;-inkscape-font-specification:FontAwesome;letter-spacing:0px;word-spacing:0px;fill:#000000;fill-opacity:1;stroke:none;stroke-width:1px;stroke-linecap:butt;stroke-linejoin:miter;stroke-opacity:1"
       x="-40"
       y="987.36218"
       id="text4150"
       sodipodi:linespacing="125%"><tspan
         sodipodi:role="line"
         id="tspan4152"
         x="-40"
         y="987.36218" /></text>
    <text
       xml:space="preserve"
       style="font-style:normal;font-variant:normal;font-weight:normal;font-stretch:normal;font-size:40px;line-height:125%;font-family:FontAwesome;-inkscape-font-specification:FontAwesome;letter-spacing:0px;word-spacing:0px;fill:#000000;fill-opacity:1;stroke:none;stroke-width:1px;stroke-linecap:butt;stroke-linejoin:miter;stroke-opacity:1"
       x="-45"
       y="997.36218"
       id="text4154"
       sodipodi:linespacing="125%"><tspan
         sodipodi:role="line"
         id="tspan4156"
         x="-45"
         y="997.36218"
         style="font-style:normal;font-variant:normal;font-weight:normal;font-stretch:normal;font-family:FontAwesome;-inkscape-font-specification:FontAwesome" /></text>
    <path
       inkscape:connector-curvature="0"
       id="path3409"
       style="font-style:normal;font-weight:normal;font-size:medium;line-height:125%;font-family:sans-serif;letter-spacing:0px;word-spacing:0px;fill:#393939;fill-opacity:1;stroke:none;stroke-width:1px;stroke-linecap:butt;stroke-linejoin:miter;stroke-opacity:1"
       d="m 156.71095,892.78711 c 0,0.63897 -0.51841,1.15739 -1.15738,1.15739 -0.63897,0 -1.15738,-0.51842 -1.15738,-1.15739 0,-0.63897 0.51841,-1.15738 1.15738,-1.15738 0.63897,0 1.15738,0.51841 1.15738,1.15738 z m 0,-13.88859 c 0,0.63897 -0.51841,1.15738 -1.15738,1.15738 -0.63897,0 -1.15738,-0.51841 -1.15738,-1.15738 0,-0.63897 0.51841,-1.15738 1.15738,-1.15738 0.63897,0 1.15738,0.51841 1.15738,1.15738 z m 7.71589,1.54318 c 0,0.63897 -0.51841,1.15738 -1.15738,1.15738 -0.63898,0 -1.15739,-0.51841 -1.15739,-1.15738 0,-0.63898 0.51841,-1.15739 1.15739,-1.15739 0.63897,0 1.15738,0.51841 1.15738,1.15739 z m 1.15738,0 c 0,-1.27795 -1.03682,-2.31477 -2.31476,-2.31477 -1.27795,0 -2.31477,1.03682 -2.31477,2.31477 0,0.85598 0.47019,1.60345 1.15738,2.0013 -0.0241,2.51972 -1.30205,3.05019 -3.54448,3.7615 -0.59075,0.18084 -1.24178,0.38579 -1.85664,0.68719 l 0,-5.99186 c 0.6872,-0.39785 1.15739,-1.14533 1.15739,-2.00131 0,-1.27794 -1.03683,-2.31477 -2.31477,-2.31477 -1.27794,0 -2.31476,1.03683 -2.31476,2.31477 0,0.85598 0.47018,1.60346 1.15738,2.00131 l 0,9.88598 c -0.6872,0.39785 -1.15738,1.14532 -1.15738,2.0013 0,1.27795 1.03682,2.31477 2.31476,2.31477 1.27794,0 2.31477,-1.03682 2.31477,-2.31477 0,-0.85598 -0.47019,-1.60345 -1.15739,-2.0013 l 0,-0.31346 c 0,-1.16945 0.62692,-1.45879 2.54383,-2.0616 2.04954,-0.65102 5.13589,-1.6155 5.17206,-5.96775 0.68719,-0.39785 1.15738,-1.14532 1.15738,-2.0013 z" />
    <path
       inkscape:connector-curvature="0"
       id="path3406"
       style="font-style:normal;font-weight:normal;font-size:medium;line-height:125%;font-family:sans-serif;letter-spacing:0px;word-spacing:0px;fill:#393939;fill-opacity:1;stroke:none;stroke-width:1px;stroke-linecap:butt;stroke-linejoin:miter;stroke-opacity:1"
       d="m 131.13123,932.6859 c -0.38579,-0.024 -0.4099,0.2532 -0.28934,0.2411 0.13261,0 0.0482,-0.217 0.28934,-0.2411 z m 1.04888,0.1688 c 0.12056,-0.048 0,-0.2894 -0.34962,-0.1326 0.21701,-0.06 0.22906,0.1688 0.34962,0.1326 z m -4.23168,5.1479 c 0.0965,0.036 0.0362,0.1447 -0.0241,0.3496 -0.0723,0.1688 -0.24112,0.3135 -0.3014,0.3014 -0.16878,-0.024 0.0482,-0.1446 0.13262,-0.3014 0.1085,-0.1687 0.0844,-0.3858 0.19289,-0.3496 z m 10.30794,4.3281 c -0.4943,-0.3978 -1.97719,-0.4701 -2.01336,0.4943 -0.26524,0 -0.45813,0.024 -0.61486,0.217 -0.60281,0.7114 -0.0482,2.134 -0.10851,2.9056 -0.0482,0.6751 -0.24112,1.3382 -0.33757,2.0134 -0.36168,-0.013 -0.32551,-0.2653 -0.21701,-0.6391 0.10851,-0.3255 0.26524,-0.7233 0.27729,-1.1091 0.0121,-0.3617 -0.0241,-0.5787 -0.12056,-0.6269 -0.0844,-0.061 -0.21701,0.048 -0.4099,0.3617 -0.40991,0.6631 -1.30206,0.9524 -2.13393,1.0488 -0.81981,0.1085 -1.5914,0.024 -2.00131,-0.434 -0.13261,-0.1567 -0.37373,0.048 -0.39785,0.084 -0.0362,0.061 0.13262,0.1688 0.26524,0.4099 0.19289,0.3376 0.37374,0.8681 -0.0844,1.1093 0.0121,-1.2178 -0.37374,-1.2901 -0.77159,-2.0376 0.77159,-0.084 0.88009,-0.9042 0.50635,-1.2538 -0.28934,-0.3014 -1.95308,-1.5312 -2.37504,-2.0134 -0.20495,-0.217 -0.48224,-0.3255 -0.59075,-0.5787 -0.26523,-0.5787 -0.44607,-1.4105 -0.12056,-2.0012 0.0603,-0.1085 0.10851,-0.061 0.0603,0.1567 -0.26523,1.2658 0.55458,2.3026 0.73542,1.7722 0.13262,-0.3617 0.0121,-1.0127 0.0844,-1.5432 0.12056,-0.9162 0.95243,-2.6885 1.32617,-2.7849 -0.56664,-1.061 0.66308,-1.8808 0.65102,-2.809 -0.0121,-0.6028 0.53047,0.7354 1.073,1.0247 0.6028,0.3134 1.26588,-0.6028 2.20626,-1.0609 0.26523,-0.1326 0.6028,-0.2773 0.57869,-0.3979 -0.10851,-0.5426 -1.22972,0.6752 -2.24243,0.7113 -0.45813,0.013 -0.62692,-0.096 -0.80776,-0.2652 -0.53046,-0.5184 0.0603,-0.084 0.85598,-0.2291 0.34963,-0.06 0.47019,-0.1205 0.84393,-0.2772 0.38579,-0.1447 0.80775,-0.3739 1.22972,-0.4944 0.3014,-0.072 0.27729,-0.3014 0.15673,-0.3617 -0.0603,-0.037 -0.15673,-0.037 -0.24113,0.096 -0.18084,0.3135 -1.03682,0.4943 -1.30205,0.5788 -0.34963,0.1085 -0.72337,0.205 -1.22972,0.1809 -0.77159,-0.024 -0.59075,-0.3859 -1.14533,-0.6994 -0.15673,-0.085 -0.1085,-0.3255 0.0965,-0.5425 0.12056,-0.1085 0.42197,-0.1808 0.5787,-0.434 0.0241,-0.037 0.217,-0.2411 0.37373,-0.3496 0.0482,-0.037 0.0482,-0.9765 -0.42196,-0.9886 -0.40991,-0.013 -0.53047,0.3014 -0.51841,0.6149 0.0241,0.3134 0.1929,0.5786 0.3014,0.5786 0.21701,-0.011 0.0121,0.2291 -0.1085,0.2653 -0.18084,0.061 -0.42197,-0.6993 -0.3858,-1.0609 0.0241,-0.3858 0.21701,-1.061 0.69925,-1.0489 0.43402,0.012 0.74748,0.5546 0.73543,1.4949 0,0.1567 0.69925,-0.072 0.94037,0.1809 0.16878,0.1687 -0.57869,-1.6637 1.08504,-1.7964 0.43402,0.085 0.85599,0.2291 1.02477,1.2418 -0.0603,0.096 0.10851,0.7957 -0.15673,0.8801 -0.32551,0.1085 -0.53047,-0.013 -0.33757,-0.3255 0.12056,-0.3135 0,-1.1092 -0.66308,-1.061 -0.67514,0.037 -0.57869,1.2297 -0.39785,1.2539 0.18084,0.024 0.63897,0.3496 0.96448,0.4098 1.04888,0.205 0.27729,0.8078 0.40991,1.5433 0.15673,0.8198 0.69925,0.6028 1.19355,2.7969 0.0965,0.1327 0.50636,0.2532 0.90421,1.9411 0.34962,1.507 -0.14468,2.6161 0.69925,2.5197 0.19289,-0.013 0.48224,-0.072 0.6028,-0.5064 0.31346,-1.1091 -0.16878,-2.4473 -0.65103,-3.3516 -0.27729,-0.5304 -0.54252,-0.88 -0.68719,-1.0006 0.55458,0.3255 1.26589,1.3744 1.43467,2.146 0.21701,1.0248 0.36168,1.4588 0.0362,2.5438 0.1929,0.085 0.66308,0.2893 0.66308,0.5063 z m -7.57121,-9.9703 c 0,0.036 -0.0241,0.036 -0.0362,0.036 -0.10851,0 -0.12056,-0.096 -0.0965,-0.2412 0.0241,-0.1085 -0.0362,-0.1808 -0.0844,-0.1808 -0.0723,0.024 -0.0965,-0.1929 0.0482,-0.1567 0.0723,0.024 0.21701,0.2411 0.16878,0.5425 z m 5.05149,2.3751 c 0.0362,0.1688 -0.0723,0.3617 -0.21701,0.3376 -0.24112,-0.048 -0.80775,-0.6269 -0.55458,-0.9043 0.0844,-0.084 0.13262,0.1568 0.36169,0.3015 0.19289,0.1205 0.36168,0.036 0.4099,0.2652 z m -2.14598,-2.568 c 0,0.036 -0.12056,0.084 -0.12056,0.06 -0.0241,-0.1809 -0.12056,-0.3496 -0.21701,-0.3737 -0.0723,-0.024 -0.12056,-0.096 0.0362,-0.1085 0.0603,-0.013 0.31346,0.1326 0.3014,0.4219 z m 0.65103,-2.8091 c -0.0603,0.1326 -0.33757,0.096 -0.39785,0.1206 -0.22907,0.084 -0.3014,0.3015 -0.40991,0.217 -0.12056,-0.096 0.0603,-0.205 0.10851,-0.3376 0.0362,-0.1206 -0.0844,-0.3737 0.15673,-0.3978 0.0964,0 0.19289,0.085 0.28934,0.1808 0.10851,0.085 0.26524,0.1567 0.25318,0.217 z m 6.81168,16.1672 c -0.33757,-0.217 -1.15738,-0.446 -1.22972,-2.0133 -0.31346,0.2773 -0.27729,1.7361 0.59075,2.0254 0.96448,0.3255 1.56729,0.868 -0.22907,1.4829 -1.18149,0.4099 -1.38645,0.5304 -2.32682,1.3141 -0.95243,0.7957 -2.37504,0.4823 -2.12187,-1.1815 0.13262,-0.8801 0.20496,-1.5914 -0.0121,-2.3509 -0.1085,-0.3617 -0.15673,-0.8439 -0.0844,-1.1694 0.13262,-0.6511 0.48225,-0.844 0.83187,-0.2291 0.21701,0.3979 0.28935,0.856 1.06094,0.8921 1.2056,0.048 1.44672,-1.1695 1.83252,-1.2297 0.25318,-0.036 0.51841,-0.7716 0.32551,-1.9531 -0.21701,-1.2658 -0.96448,-3.2552 -1.91691,-4.2678 -0.7957,-0.844 -1.29,-1.5794 -1.60346,-2.6283 -0.26523,-0.8921 -0.40991,-1.7481 -0.36168,-2.58 0.0723,-1.0609 -0.51841,-2.5438 -1.45879,-3.2431 -0.59074,-0.434 -1.51906,-0.6751 -2.35093,-0.663 -0.47019,0 -0.91626,0.072 -1.25383,0.2531 -1.39851,0.7596 -1.5914,1.8447 -1.56729,3.0864 0.0241,1.1574 0.0603,2.4835 0.1929,3.7374 -0.15673,0.5787 -0.97655,1.6758 -1.49496,2.3509 -0.69925,0.6872 -1.04887,2.0255 -1.50701,3.1949 -0.24112,0.6148 -0.63897,0.9042 -0.67514,1.6999 -0.0121,0.229 0,0.8077 0.20496,0.6389 0.81981,-0.6269 1.84458,0.9646 3.39981,3.3999 0.28935,0.4701 1.33822,2.4353 -0.4943,2.6885 -0.61486,0.084 -1.60346,-0.3496 -2.55589,-0.5907 -0.85598,-0.205 -1.73607,-0.3376 -2.21831,-0.4703 -0.3014,-0.084 -0.42197,-0.1929 -0.44608,-0.3135 -0.0723,-0.3255 0.36169,-0.7836 0.37374,-1.1694 0.0241,-0.3858 -0.13262,-0.5907 -0.26523,-0.9042 -0.13262,-0.3134 -0.16879,-0.5545 -0.0603,-0.6871 0.0723,-0.1085 0.24112,-0.1447 0.51841,-0.1206 0.34962,0.036 0.77159,-0.037 1.00065,-0.1808 0.37374,-0.2291 0.55458,-0.6993 0.3858,-1.278 0,0.5667 -0.1929,0.7716 -0.65103,1.0368 -0.43402,0.2412 -1.0971,0.036 -1.41056,0.3135 -0.36168,0.3135 0.13261,1.1453 0.0965,1.7601 -0.0362,0.4582 -0.51841,0.9886 -0.3014,1.4588 0.21701,0.4703 1.24177,0.5306 2.30271,0.7476 1.51906,0.3134 2.39915,0.868 3.09841,0.8921 1.02476,0.036 1.18149,-0.9886 2.77289,-1.0248 0.47019,-0.012 0.92832,-0.036 1.38645,-0.048 0.51841,0 1.03682,0 1.56729,0.012 1.06093,0.036 0.69925,0.5907 1.38645,0.9404 0.59074,0.3014 1.63962,0.1809 1.8928,-0.061 0.33757,-0.3256 1.25383,-1.0972 1.94103,-1.4468 0.88009,-0.4461 2.91757,-1.2056 1.43467,-2.1219 z" />
    <text
       xml:space="preserve"
       style="font-style:normal;font-weight:normal;font-size:22.5px;line-height:125%;font-family:sans-serif;letter-spacing:0px;word-spacing:0px;fill:#000000;fill-opacity:1;stroke:none;stroke-width:1px;stroke-linecap:butt;stroke-linejoin:miter;stroke-opacity:1"
       x="-10"
       y="977.36218"
       id="text4166"
       sodipodi:linespacing="125%"><tspan
         sodipodi:role="line"
         id="tspan4168"
         x="-10"
         y="977.36218" /></text>
    <path
       style="fill:#393939;fill-opacity:1;fill-rule:evenodd;stroke:#e2e0de;stroke-width:1px;stroke-linecap:round;stroke-linejoin:round;stroke-opacity:1"
       d="m 208.5,1016.3622 -60,0 0,-20 60,0 -10,10 z"
       id="path4162"
       inkscape:connector-curvature="0" />
    <path
       style="fill:#e2e0de;fill-opacity:1;fill-rule:evenodd;stroke:#e2e0de;stroke-width:1px;stroke-linecap:round;stroke-linejoin:round;stroke-opacity:1"
       d="m 188.5,991.3622 -10,5 -30,0 10,-5 z"
       id="path4172"
       inkscape:connector-curvature="0" />
    <path
       style="fill:#393939;fill-opacity:1;fill-rule:evenodd;stroke:#e2e0de;stroke-width:1px;stroke-linecap:round;stroke-linejoin:round;stroke-opacity:1"
       d="m 188.5,991.3622 0,-20 -66,0 10,10 -10,10 z"
       id="path4174"
       inkscape:connector-curvature="0"
       sodipodi:nodetypes="cccccc" />
    <g
       style="font-style:normal;font-weight:normal;font-size:13.75px;line-height:125%;font-family:sans-serif;letter-spacing:0px;word-spacing:0px;fill:#e2e0de;fill-opacity:1;stroke:none;stroke-width:1px;stroke-linecap:butt;stroke-linejoin:miter;stroke-opacity:1"
       id="text3374"
       transform="translate(113.5,-35)">
      <path
         d="m 23.0725,1020.6122 -0.17875,0 0,-9.625 0.4675,0 5.72,8.8962 0,-8.8962 0.17875,0 0,9.625 -1.00375,0 -5.18375,-7.975 0,7.975 z"
         style="font-style:normal;font-variant:normal;font-weight:normal;font-stretch:normal;font-size:13.75px;font-family:Italiana;-inkscape-font-specification:Italiana;fill:#e2e0de;fill-opacity:1"
         id="path4216"
         inkscape:connector-curvature="0" />
      <path
         d="m 32.089707,1020.6122 q -0.56375,0 -0.86625,-0.2475 -0.28875,-0.2475 -0.3025,-0.495 l -0.01375,-0.2338 0,-5.8987 0.9625,0 0,5.8987 q 0,0.3988 0.15125,0.6188 0.165,0.2062 0.31625,0.22 l 0.165,0.028 0.42625,0 0,0.11 -0.83875,0 z m -1.1,-8.415 q -0.165,-0.165 -0.165,-0.4125 0,-0.2475 0.165,-0.4125 0.165,-0.1788 0.4125,-0.1788 0.2475,0 0.4125,0.1788 0.17875,0.165 0.17875,0.4125 0,0.2475 -0.17875,0.4125 -0.165,0.165 -0.4125,0.165 -0.2475,0 -0.4125,-0.165 z"
         style="font-style:normal;font-variant:normal;font-weight:normal;font-stretch:normal;font-size:13.75px;font-family:Italiana;-inkscape-font-specification:Italiana;fill:#e2e0de;fill-opacity:1"
         id="path4218"
         inkscape:connector-curvature="0" />
      <path
         d="m 36.563398,1013.7922 q -0.97625,0 -1.63625,0.935 -0.64625,0.935 -0.64625,2.585 0,1.65 0.59125,2.4475 0.605,0.7975 1.58125,0.7975 1.22375,0 2.1725,-0.4125 l 0.04125,0.096 q -0.97625,0.4263 -2.2825,0.4263 -1.30625,0 -2.1725,-0.825 -0.86625,-0.825 -0.86625,-2.5438 0,-1.7187 0.9075,-2.6675 0.9075,-0.9487 2.31,-0.9487 0.78375,0 1.44375,0.3575 0.67375,0.3575 0.99,1.0862 l -0.88,0 q -0.20625,-0.6737 -0.6325,-1.0037 -0.4125,-0.33 -0.92125,-0.33 z"
         style="font-style:normal;font-variant:normal;font-weight:normal;font-stretch:normal;font-size:13.75px;font-family:Italiana;-inkscape-font-specification:Italiana;fill:#e2e0de;fill-opacity:1"
         id="path4220"
         inkscape:connector-curvature="0" />
      <path
         d="m 45.727344,1020.6122 q -0.56375,0 -0.86625,-0.2475 -0.28875,-0.2475 -0.3025,-0.495 l -0.01375,-0.2338 0,-4.3175 q 0,-1.0862 -0.5775,-1.3887 -0.275,-0.1375 -0.70125,-0.1375 -0.8525,0 -1.54,0.7012 -0.67375,0.6875 -0.67375,1.2375 l 0,4.8813 -0.9625,0 0,-10.2988 0.9625,0 0,4.9913 q 0.22,-0.5913 0.83875,-1.1 0.61875,-0.5225 1.38875,-0.5225 1.33375,0 1.77375,0.4675 0.45375,0.4537 0.45375,1.1825 l 0,4.3037 q 0,0.3988 0.15125,0.6188 0.165,0.2062 0.31625,0.22 l 0.165,0.028 0.42625,0 0,0.11 -0.83875,0 z"
         style="font-style:normal;font-variant:normal;font-weight:normal;font-stretch:normal;font-size:13.75px;font-family:Italiana;-inkscape-font-specification:Italiana;fill:#e2e0de;fill-opacity:1"
         id="path4222"
         inkscape:connector-curvature="0" />
      <path
         d="m 50.46207,1020.6672 q -1.44375,0 -2.35125,-0.825 -0.9075,-0.825 -0.9075,-2.5438 0,-1.7187 0.935,-2.6675 0.94875,-0.9487 2.3925,-0.9487 1.4575,0 2.365,0.825 0.9075,0.825 0.9075,2.5437 0,1.7188 -0.94875,2.6675 -0.935,0.9488 -2.3925,0.9488 z m 0.09625,-6.875 q -1.045,0 -1.7325,0.935 -0.6875,0.9212 -0.6875,2.585 0,1.65 0.6325,2.4475 0.6325,0.7975 1.6775,0.7975 1.045,0 1.7325,-0.9213 0.6875,-0.935 0.6875,-2.585 0,-1.6637 -0.6325,-2.4612 -0.6325,-0.7975 -1.6775,-0.7975 z"
         style="font-style:normal;font-variant:normal;font-weight:normal;font-stretch:normal;font-size:13.75px;font-family:Italiana;-inkscape-font-specification:Italiana;fill:#e2e0de;fill-opacity:1"
         id="path4224"
         inkscape:connector-curvature="0" />
      <path
         d="m 56.630234,1020.6122 q -1.21,0 -1.52625,-0.6325 -0.06875,-0.1375 -0.06875,-0.2475 l 0,-9.4188 0.9625,0 0,9.3225 q 0,0.3988 0.15125,0.6188 0.165,0.2062 0.33,0.22 l 0.15125,0.028 0.42625,0 0,0.11 -0.42625,0 z"
         style="font-style:normal;font-variant:normal;font-weight:normal;font-stretch:normal;font-size:13.75px;font-family:Italiana;-inkscape-font-specification:Italiana;fill:#e2e0de;fill-opacity:1"
         id="path4226"
         inkscape:connector-curvature="0" />
      <path
         d="m 63.48998,1020.6122 q -0.935,0 -1.27875,-0.3575 -0.31625,-0.3025 -0.31625,-0.5225 l 0,-0.2888 q -0.67375,1.2238 -2.15875,1.2238 -1.7325,0 -1.96625,-1.5675 -0.0275,-0.165 -0.0275,-0.33 0,-0.1788 0.055,-0.385 0.055,-0.2063 0.31625,-0.4538 0.5225,-0.495 2.29625,-0.605 0.44,-0.041 0.81125,-0.041 0.37125,0 0.67375,0.027 l 0,-2.2825 q -0.0275,-0.014 0,-0.1238 0.0275,-0.1237 -0.055,-0.3025 -0.06875,-0.1925 -0.1925,-0.3712 -0.12375,-0.1788 -0.44,-0.3025 -0.31625,-0.1375 -0.825,-0.1375 -0.50875,0 -1.19625,0.1925 -0.67375,0.1787 -0.99,0.3575 l -0.055,-0.096 q 1.22375,-0.5637 2.48875,-0.5637 1.41625,0 1.87,0.5087 0.3575,0.3988 0.3575,0.8388 l 0,4.6062 q 0,0.3988 0.15125,0.6188 0.165,0.2062 0.33,0.22 l 0.15125,0.028 0.42625,0 0,0.11 -0.42625,0 z m -3.53375,-0.055 q 0.72875,0 1.30625,-0.495 0.59125,-0.5088 0.6325,-0.9763 l 0,-1.6637 q -0.37125,-0.028 -0.75625,-0.028 -0.37125,0 -0.7425,0.041 -1.045,0.1238 -1.36125,0.4675 -0.31625,0.3438 -0.31625,0.9488 0,0.11 0.01375,0.2475 0.12375,1.4575 1.22375,1.4575 z"
         style="font-style:normal;font-variant:normal;font-weight:normal;font-stretch:normal;font-size:13.75px;font-family:Italiana;-inkscape-font-specification:Italiana;fill:#e2e0de;fill-opacity:1"
         id="path4228"
         inkscape:connector-curvature="0" />
      <path
         d="m 68.70123,1014.2184 q -0.22,-0.1787 -0.715,-0.3025 -0.48125,-0.1237 -0.72875,-0.1237 -0.2475,0 -0.28875,0 -0.7425,0.014 -1.0725,0.385 -0.33,0.3575 -0.33,0.8112 0,0.4538 0.28875,0.77 0.28875,0.3025 0.715,0.4813 0.44,0.165 0.935,0.385 0.50875,0.22 0.935,0.4537 0.44,0.22 0.72875,0.66 0.28875,0.4263 0.28875,1.0725 0,0.6463 -0.45375,1.1 -0.45375,0.4538 -1.0175,0.605 -0.55,0.1513 -1.19625,0.1513 -1.4025,0 -2.10375,-0.6188 l 0.0825,-0.082 q 0.275,0.2613 0.81125,0.4263 0.55,0.165 1.05875,0.165 0.81125,0 1.33375,-0.44 0.53625,-0.4538 0.53625,-1.1138 0,-0.6737 -0.39875,-1.0725 -0.39875,-0.4125 -0.97625,-0.6325 -0.56375,-0.2337 -1.14125,-0.4537 -0.5775,-0.2338 -0.97625,-0.6325 -0.39875,-0.4125 -0.39875,-0.9488 0,-0.5362 0.2475,-0.8662 0.2475,-0.3438 0.66,-0.4813 0.70125,-0.2337 1.4025,-0.2337 1.1825,0 1.8425,0.44 l -0.06875,0.096 z"
         style="font-style:normal;font-variant:normal;font-weight:normal;font-stretch:normal;font-size:13.75px;font-family:Italiana;-inkscape-font-specification:Italiana;fill:#e2e0de;fill-opacity:1"
         id="path4230"
         inkscape:connector-curvature="0" />
    </g>
    <g
       style="font-style:normal;font-weight:normal;font-size:13.75px;line-height:125%;font-family:sans-serif;letter-spacing:0px;word-spacing:0px;fill:#e2e0de;fill-opacity:1;stroke:none;stroke-width:1px;stroke-linecap:butt;stroke-linejoin:miter;stroke-opacity:1"
       id="text3378"
       transform="translate(113.5,-35)">
      <path
         d="m 39.2125,1036.0972 q 1.595,-0.11 2.81875,-0.11 3.39625,0 3.39625,2.2687 0,0.9625 -0.4675,1.7188 -0.4675,0.7562 -1.60875,1.0037 l 2.75,4.6338 -1.27875,0 -2.695,-4.5513 -1.77375,0 0,4.5513 -1.14125,0 0,-9.515 z m 2.81875,0.028 q -0.7975,0 -1.6775,0.096 l 0,4.7025 2.035,0 q 1.93875,-0.082 1.93875,-2.64 0,-1.045 -0.5775,-1.595 -0.5775,-0.5637 -1.71875,-0.5637 z"
         style="font-style:normal;font-variant:normal;font-weight:normal;font-stretch:normal;font-size:13.75px;font-family:Italiana;-inkscape-font-specification:Italiana;fill:#e2e0de;fill-opacity:1"
         id="path4201"
         inkscape:connector-curvature="0" />
      <path
         d="m 50.169102,1045.6672 q -1.44375,0 -2.35125,-0.825 -0.9075,-0.825 -0.9075,-2.5438 0,-1.7187 0.935,-2.6675 0.94875,-0.9487 2.3925,-0.9487 1.4575,0 2.365,0.825 0.9075,0.825 0.9075,2.5437 0,1.7188 -0.94875,2.6675 -0.935,0.9488 -2.3925,0.9488 z m 0.09625,-6.875 q -1.045,0 -1.7325,0.935 -0.6875,0.9212 -0.6875,2.585 0,1.65 0.6325,2.4475 0.6325,0.7975 1.6775,0.7975 1.045,0 1.7325,-0.9213 0.6875,-0.935 0.6875,-2.585 0,-1.6637 -0.6325,-2.4612 -0.6325,-0.7975 -1.6775,-0.7975 z"
         style="font-style:normal;font-variant:normal;font-weight:normal;font-stretch:normal;font-size:13.75px;font-family:Italiana;-inkscape-font-specification:Italiana;fill:#e2e0de;fill-opacity:1"
         id="path4203"
         inkscape:connector-curvature="0" />
      <path
         d="m 54.322461,1035.3134 0.9625,0 0,5.1288 q 0.23375,-0.6325 0.86625,-1.1963 0.6325,-0.5637 1.43,-0.5637 2.79125,0 2.79125,3.2725 0,3.7125 -3.6025,3.7125 -1.05875,0 -2.4475,-0.3438 l 0,-10.01 z m 3.245,3.4788 q -0.8525,0 -1.54,0.7425 -0.6875,0.7287 -0.7425,1.32 l 0,4.3862 q 0.83875,0.3163 1.47125,0.3163 2.65375,0 2.65375,-3.6163 0,-3.1487 -1.8425,-3.1487 z"
         style="font-style:normal;font-variant:normal;font-weight:normal;font-stretch:normal;font-size:13.75px;font-family:Italiana;-inkscape-font-specification:Italiana;fill:#e2e0de;fill-opacity:1"
         id="path4205"
         inkscape:connector-curvature="0" />
      <path
         d="m 62.37416,1042.2572 q 0,1.705 0.59125,2.5025 0.605,0.7975 1.58125,0.7975 1.375,0 2.4475,-0.4125 l 0.04125,0.096 q -1.1,0.4263 -2.48875,0.4263 -1.375,0 -2.24125,-0.825 -0.86625,-0.825 -0.86625,-2.5438 0,-1.7187 0.9075,-2.6675 0.9075,-0.9487 2.31,-0.9487 1.1275,0 1.8975,0.6737 0.77,0.6738 0.77,1.9938 0,0.069 0,0.1375 l -4.90875,0 q -0.04125,0.3712 -0.04125,0.77 z m 4.015,-0.88 q -0.01375,-1.32 -0.50875,-1.9525 -0.495,-0.6325 -1.27875,-0.6325 -0.78375,0 -1.4025,0.6875 -0.605,0.6875 -0.77,1.8975 l 3.96,0 z"
         style="font-style:normal;font-variant:normal;font-weight:normal;font-stretch:normal;font-size:13.75px;font-family:Italiana;-inkscape-font-specification:Italiana;fill:#e2e0de;fill-opacity:1"
         id="path4207"
         inkscape:connector-curvature="0" />
      <path
         d="m 70.510723,1039.3284 0,-0.2887 q -0.61875,0.2475 -1.1275,1.0037 -0.50875,0.7425 -0.53625,1.4025 l 0,4.1663 -0.9625,0 0,-6.875 0.9625,0 0,2.1862 q 0.22,-0.7975 0.83875,-1.4987 0.61875,-0.715 1.4025,-0.7425 l 0.055,0 q 0.275,0 0.45375,0.1925 0.1925,0.1787 0.1925,0.4537 0,0.275 -0.1925,0.4538 -0.17875,0.1787 -0.45375,0.1787 -0.275,0 -0.45375,-0.1787 -0.17875,-0.1788 -0.17875,-0.4538 z"
         style="font-style:normal;font-variant:normal;font-weight:normal;font-stretch:normal;font-size:13.75px;font-family:Italiana;-inkscape-font-specification:Italiana;fill:#e2e0de;fill-opacity:1"
         id="path4209"
         inkscape:connector-curvature="0" />
      <path
         d="m 72.757129,1038.8472 0,-0.11 0.28875,0 0,-1.375 0.9625,0 0,1.375 2.10375,0 0,0.11 -2.10375,0 0,5.005 q 0,0.8937 0.1925,1.2925 0.20625,0.3987 0.83875,0.3987 0.64625,0 1.30625,-0.2612 l 0.04125,0.11 q -0.6875,0.2612 -1.58125,0.2612 -0.88,0 -1.32,-0.3575 -0.44,-0.3712 -0.44,-1.4575 l 0,-4.9912 -0.28875,0 z"
         style="font-style:normal;font-variant:normal;font-weight:normal;font-stretch:normal;font-size:13.75px;font-family:Italiana;-inkscape-font-specification:Italiana;fill:#e2e0de;fill-opacity:1"
         id="path4211"
         inkscape:connector-curvature="0" />
      <path
         d="m 81.325742,1039.2184 q -0.22,-0.1787 -0.715,-0.3025 -0.48125,-0.1237 -0.72875,-0.1237 -0.2475,0 -0.28875,0 -0.7425,0.014 -1.0725,0.385 -0.33,0.3575 -0.33,0.8112 0,0.4538 0.28875,0.77 0.28875,0.3025 0.715,0.4813 0.44,0.165 0.935,0.385 0.50875,0.22 0.935,0.4537 0.44,0.22 0.72875,0.66 0.28875,0.4263 0.28875,1.0725 0,0.6463 -0.45375,1.1 -0.45375,0.4538 -1.0175,0.605 -0.55,0.1513 -1.19625,0.1513 -1.4025,0 -2.10375,-0.6188 l 0.0825,-0.082 q 0.275,0.2613 0.81125,0.4263 0.55,0.165 1.05875,0.165 0.81125,0 1.33375,-0.44 0.53625,-0.4538 0.53625,-1.1138 0,-0.6737 -0.39875,-1.0725 -0.39875,-0.4125 -0.97625,-0.6325 -0.56375,-0.2337 -1.14125,-0.4537 -0.5775,-0.2338 -0.97625,-0.6325 -0.39875,-0.4125 -0.39875,-0.9488 0,-0.5362 0.2475,-0.8662 0.2475,-0.3438 0.66,-0.4813 0.70125,-0.2337 1.4025,-0.2337 1.1825,0 1.8425,0.44 l -0.06875,0.096 z"
         style="font-style:normal;font-variant:normal;font-weight:normal;font-stretch:normal;font-size:13.75px;font-family:Italiana;-inkscape-font-specification:Italiana;fill:#e2e0de;fill-opacity:1"
         id="path4213"
         inkscape:connector-curvature="0" />
    </g>
    <g
       style="font-style:normal;font-variant:normal;font-weight:normal;font-stretch:normal;font-size:27.5px;line-height:125%;font-family:Italiana;-inkscape-font-specification:Italiana;letter-spacing:0px;word-spacing:0px;fill:#393939;fill-opacity:1;stroke:none;stroke-width:1px;stroke-linecap:butt;stroke-linejoin:miter;stroke-opacity:1"
       id="text4186"
       transform="matrix(3.2337662,0,0,3.2337662,-26.220065,-2127.1337)">
      <path
         d="m 17.145,962.11218 -0.3575,0 0,-19.25 0.935,0 11.44,17.7925 0,-17.7925 0.3575,0 0,19.25 -2.0075,0 -10.3675,-15.95 0,15.95 z"
         id="path4198"
         inkscape:connector-curvature="0" />
    </g>
    <g
       style="font-style:normal;font-variant:normal;font-weight:normal;font-stretch:normal;font-size:27.5px;line-height:125%;font-family:Italiana;-inkscape-font-specification:Italiana;letter-spacing:0px;word-spacing:0px;fill:#393939;fill-opacity:1;stroke:none;stroke-width:1px;stroke-linecap:butt;stroke-linejoin:miter;stroke-opacity:1"
       id="text4190"
       transform="translate(131.5,-27)">
      <path
         d="m 70.175,943.08218 q 3.19,-0.22 5.6375,-0.22 6.7925,0 6.7925,4.5375 0,1.925 -0.935,3.4375 -0.935,1.5125 -3.2175,2.0075 l 5.5,9.2675 -2.5575,0 -5.39,-9.1025 -3.5475,0 0,9.1025 -2.2825,0 0,-19.03 z m 5.6375,0.055 q -1.595,0 -3.355,0.1925 l 0,9.405 4.07,0 q 3.8775,-0.165 3.8775,-5.28 0,-2.09 -1.155,-3.19 -1.155,-1.1275 -3.4375,-1.1275 z"
         id="path4195"
         inkscape:connector-curvature="0" />
    </g>
  </g>
</svg>
